<svg xmlns="http://www.w3.org/2000/svg" xmlns:xlink="http://www.w3.org/1999/xlink" viewBox="0 0 43 42.71"><defs><style>.cls-1,.cls-10,.cls-11,.cls-2,.cls-3,.cls-4,.cls-5,.cls-6,.cls-7,.cls-8,.cls-9{fill-rule:evenodd;}.cls-1{fill:url(#linear-gradient);}.cls-2{fill:#fff;}.cls-3{fill:url(#GradientFill_3);}.cls-4{fill:url(#GradientFill_4);}.cls-5{fill:url(#GradientFill_2);}.cls-6{fill:url(#GradientFill_5);}.cls-7{fill:url(#GradientFill_6);}.cls-8{fill:url(#GradientFill_7);}.cls-9{fill:url(#GradientFill_8);}.cls-10{fill:url(#GradientFill_9);}.cls-11{fill:url(#GradientFill_2-2);}</style><linearGradient id="linear-gradient" x1="131.15" y1="25.3" x2="143.52" y2="33.64" gradientUnits="userSpaceOnUse"><stop offset="0" stop-color="#febe2d"/><stop offset="1" stop-color="#f85e23"/></linearGradient><linearGradient id="GradientFill_3" x1="16.85" y1="6.11" x2="36.49" y2="6.11" gradientUnits="userSpaceOnUse"><stop offset="0" stop-color="#fbaa19"/><stop offset="1" stop-color="#ef3e23"/></linearGradient><linearGradient id="GradientFill_4" x1="15.77" y1="31.08" x2="17.31" y2="26.87" gradientUnits="userSpaceOnUse"><stop offset="0" stop-color="#f78d1e"/><stop offset="1" stop-color="#f37121"/></linearGradient><linearGradient id="GradientFill_2" x1="3.56" y1="32.53" x2="27.49" y2="6.88" gradientUnits="userSpaceOnUse"><stop offset="0" stop-color="#febe2d"/><stop offset="1" stop-color="#f04e23"/></linearGradient><linearGradient id="GradientFill_5" x1="20.47" y1="17.54" x2="7.23" y2="37.92" gradientUnits="userSpaceOnUse"><stop offset="0" stop-color="#ea4425"/><stop offset="1" stop-color="#fdbb27"/></linearGradient><linearGradient id="GradientFill_6" x1="0.24" y1="10.57" x2="42.04" y2="10.57" gradientUnits="userSpaceOnUse"><stop offset="0" stop-color="#f47920"/><stop offset="1" stop-color="#e93825"/></linearGradient><linearGradient id="GradientFill_7" x1="-21.84" y1="7.78" x2="63.21" y2="7.78" gradientUnits="userSpaceOnUse"><stop offset="0" stop-color="#fdca0b"/><stop offset="1" stop-color="#f5841f"/></linearGradient><linearGradient id="GradientFill_8" x1="8.54" y1="18.07" x2="17.39" y2="48.94" gradientUnits="userSpaceOnUse"><stop offset="0" stop-color="#e73c25"/><stop offset="1" stop-color="#faa21b"/></linearGradient><linearGradient id="GradientFill_9" x1="-51.37" y1="23.08" x2="74.88" y2="23.08" gradientUnits="userSpaceOnUse"><stop offset="0" stop-color="#fdba12"/><stop offset="1" stop-color="#f7921e"/></linearGradient><linearGradient id="GradientFill_2-2" x1="0.08" y1="16.72" x2="4.81" y2="17.56" xlink:href="#GradientFill_2"/></defs><g id="Layer_2" data-name="Layer 2"><g id="Layer_1-2" data-name="Layer 1"><path class="cls-3" d="M21,6.85l9.87,5.36L21.75,0A6.8,6.8,0,0,0,21,6.85Z"/><path class="cls-4" d="M16.54,26.73A2.25,2.25,0,1,1,14.29,29,2.25,2.25,0,0,1,16.54,26.73Z"/><path class="cls-5" d="M9.67,1.79l27.64,15a1.34,1.34,0,0,1,0,2.41,21.49,21.49,0,0,1-6.77,2.64l-5.75,11.8s-1.82,4.14-6.83,2.55c2.1-2.1,4.64-4,4.64-7.23a6.07,6.07,0,0,0-12.14,0c0,4.22,4.16,6,6.47,8.93a3.8,3.8,0,0,1-.33,4.79c-2.87-2.84-8.42-7.63-10.7-10.77a9.1,9.1,0,0,1-1.95-5.55,10.45,10.45,0,0,1,7.38-9.46,12.05,12.05,0,0,1,3.88-.47A12.58,12.58,0,0,1,20.41,18c2.45,1.44,3.64,1.06,5.33-.36,1-.82,2.09-3.49.4-4.11a12.14,12.14,0,0,0-1.69-.42c-3.14-.61-8.63-1.19-10.65-2.34C10.59,9,8.43,5.35,9.67,1.79Z"/><path class="cls-6" d="M22.55,29.35h0Zm0-.36C23.83,22.26,17,15.84,11.76,16.8l.35-.08q-.42.09-.81.21a10.45,10.45,0,0,0-7.38,9.46,9.1,9.1,0,0,0,2,5.55c2.28,3.14,7.83,7.93,10.7,10.77a3.8,3.8,0,0,0,.33-4.79C14.59,35,10.43,33.21,10.43,29a6.07,6.07,0,0,1,12.14,0Z"/><path class="cls-7" d="M9.67,1.79l21,11.44h0l.6.33c.5.39,1,1.17.35,2.61-1,2.15-5,4.23-9.61,2.6,1.44.42,2.42-.06,3.68-1.12,1-.82,2.09-3.49.4-4.11a12.14,12.14,0,0,0-1.69-.42c-3.14-.61-8.63-1.19-10.65-2.34C10.59,9,8.43,5.35,9.67,1.79Z"/><path class="cls-8" d="M9.67,1.79c2.17,8,15.38,8.66,22,12Z"/><path class="cls-9" d="M16.9,37.92C14.59,35,10.43,33.21,10.43,29a6.07,6.07,0,0,1,5.32-6A8.78,8.78,0,0,0,7,31.75a8.54,8.54,0,0,0,.18,1.76c1.91,2.16,4.67,4.71,7,6.87.91.85,1.75,1.65,2.44,2.33a4.18,4.18,0,0,0,1-2.37h0A3.66,3.66,0,0,0,16.9,37.92Z"/><path class="cls-10" d="M22.52,29.71a5.81,5.81,0,0,0,.05-.72C23.83,22.26,17,15.84,11.76,16.8a12.49,12.49,0,0,1,3.42-.34c6.87.28,8.79,7.62,7.34,13.25Z"/><path class="cls-11" d="M2.26,14.84h0a2.27,2.27,0,0,1,2.26,2.27v2.26H2.26A2.26,2.26,0,0,1,0,17.11H0A2.27,2.27,0,0,1,2.26,14.84Z"/></g></g></svg>