<svg width="470" height="552" viewBox="0 0 470 552" fill="none" xmlns="http://www.w3.org/2000/svg">
<path d="M58.651 223.754C58.651 223.754 32.9698 238.548 65.8498 276.937L58.651 223.754Z" fill="url(#paint0_linear_2584_3)"/>
<path d="M72.1755 283.063C72.1755 283.063 46.7725 308.768 32.4316 333.661L46.429 350.441L92.54 311.912L72.1755 283.063Z" fill="url(#paint1_linear_2584_3)"/>
<path d="M95.2995 307.149L79.6273 413.957L71.6252 402.779L56.8018 382.078L63.8501 311.61L79.8601 317.938L95.2995 307.149Z" fill="url(#paint2_linear_2584_3)"/>
<path d="M25.5944 340.793C25.5944 340.793 24.3908 331.817 31.0701 330.829C37.7495 329.842 49.9585 340.636 48.701 351.412C48.2496 355.288 42.4361 355.515 37.335 353.591C30.5904 351.045 24.0615 346.596 24.0615 346.596L25.5944 340.793Z" fill="url(#paint3_linear_2584_3)"/>
<path d="M176.879 340.462L172.493 342.721L158.15 350.11L158.147 350.11L152.452 353.044L151.158 353.711L146.443 356.14L117.747 354.863L109.705 343.805C109.705 343.805 109.112 343.152 108.048 341.92C104.846 338.211 97.3686 329.255 88.9406 317.093C82.5622 307.884 75.6387 296.834 69.6151 284.835C69.6151 284.835 69.6123 284.835 69.6123 284.83C66.4926 278.612 63.9832 272.937 61.9962 267.758C43.7408 220.134 69.6123 214.339 69.6123 214.339L149.151 202.741L176.879 340.462Z" fill="url(#paint4_linear_2584_3)"/>
<path d="M172.495 342.721L158.151 350.11L158.149 350.11C137.918 325.492 121.734 271.018 121.734 271.018L140.393 252.828L172.495 342.721Z" fill="url(#paint5_linear_2584_3)"/>
<path d="M157.593 332.824L151.404 349.235C151.404 349.235 154.828 354.096 156.21 355.339C157.593 356.582 171.823 352.995 171.823 352.995L157.593 332.824Z" fill="url(#paint6_linear_2584_3)"/>
<path d="M123.078 334.709L108.05 341.919C104.848 338.21 97.3714 329.254 88.9435 317.092C89.7667 303.53 85.4406 290.553 85.4406 290.553C79.0451 289.29 72.8285 286.455 69.618 284.835C69.618 284.835 69.6151 284.835 69.6151 284.829C66.4954 278.611 63.9861 272.936 61.999 267.757C75.5195 276.37 92.9346 279.44 92.9346 279.44C110.273 318.607 123.078 334.709 123.078 334.709Z" fill="url(#paint7_linear_2584_3)"/>
<path d="M126.912 232.161C126.912 232.161 119.676 268.403 106.181 268.59C105.588 268.599 104.986 268.542 104.382 268.426C92.4225 266.164 78.9219 241.032 78.9219 241.032L85.4167 229.571L103.618 226.906L120.707 225.779L121.49 226.585L126.912 232.161Z" fill="url(#paint8_linear_2584_3)"/>
<path d="M99.6455 254.026C99.6455 254.026 104.579 257.621 108.741 252.828C108.741 252.828 108.587 261.18 105.144 261.498C101.133 261.866 99.6455 254.026 99.6455 254.026Z" fill="url(#paint9_linear_2584_3)"/>
<path d="M109.993 224.318C109.993 224.318 111.066 252.069 103.938 252.069C96.8274 252.069 93.8213 230.652 93.8213 230.652L99.3254 224.315L109.993 224.315L109.993 224.318Z" fill="url(#paint10_linear_2584_3)"/>
<path d="M126.907 232.161C126.907 232.161 119.672 268.403 106.177 268.59C105.583 268.598 104.982 268.542 104.377 268.425C118.09 264.796 121.485 226.585 121.485 226.585L126.907 232.161Z" fill="url(#paint11_linear_2584_3)"/>
<path d="M73.1262 224.315C73.1262 224.315 71.9481 229.565 72.5698 237.128L78.9227 241.027C78.9227 241.027 87.9496 232.698 89.1759 229.565L73.1262 224.315Z" fill="url(#paint12_linear_2584_3)"/>
<path d="M198.281 99.3894C200.614 96.6197 202.616 93.782 204.322 90.9101C216.92 69.7232 213.587 46.7031 210.743 35.4995C209.644 31.1606 208.617 28.5952 208.617 28.5952C201.645 37.3923 194.003 46.4193 186.2 55.2647C153.013 92.8824 116.891 127.276 116.891 127.276C115.685 128.812 115.285 129.964 115.401 130.826C115.489 131.505 115.898 132.004 116.471 132.37C117.365 132.938 118.666 133.187 119.829 133.29C121.041 133.397 122.262 133.352 123.466 133.182C162.812 127.637 185.524 114.523 198.278 99.3866L198.281 99.3894Z" fill="url(#paint13_linear_2584_3)"/>
<path d="M204.322 90.9145L200.078 76.1836C167.709 111.639 127.858 126.614 116.475 132.377C117.369 132.945 118.669 133.195 119.833 133.297C121.045 133.405 122.265 133.359 123.469 133.189C170.014 126.631 193.283 109.479 204.322 90.9145Z" fill="url(#paint14_linear_2584_3)"/>
<path d="M198.28 99.388C200.614 96.6184 202.615 93.7806 204.321 90.9087C221.796 61.5178 208.616 28.5967 208.616 28.5967C201.644 37.3938 194.003 46.4208 186.199 55.2662C191.581 61.6256 202.885 78.0252 198.28 99.388Z" fill="url(#paint15_linear_2584_3)"/>
<path opacity="0.4" d="M115.401 130.831C124.09 124.633 162.56 95.6251 210.743 35.501C209.644 31.162 208.617 28.5967 208.617 28.5967C201.645 37.3938 194.003 46.4208 186.2 55.2662C153.013 92.8838 116.891 127.278 116.891 127.278C115.685 128.813 115.285 129.965 115.401 130.828L115.401 130.831Z" fill="#FDC982"/>
<path d="M156.594 175.517L77.8554 182.612C77.8554 182.612 58.4589 166.893 63.0802 139.787C63.0802 139.787 56.7642 140.865 56.4576 147.332C56.4576 147.332 52.0066 119.746 89.1134 110.274C89.8174 110.095 90.5384 109.922 91.2736 109.754C91.2736 109.754 100.758 101.82 115.238 102.456C126.195 102.935 140.01 108.324 154.743 125.771L156.594 175.517Z" fill="url(#paint16_linear_2584_3)"/>
<path style="mix-blend-mode:multiply" opacity="0.5" d="M115.239 102.456C106.686 123.756 76.2646 147.026 76.2646 147.026L84.2526 117.504L89.1152 110.274C89.8192 110.095 90.5402 109.922 91.2754 109.754C91.2754 109.754 100.759 101.82 115.239 102.456Z" fill="url(#paint17_linear_2584_3)"/>
<path d="M123.879 190.889L121.89 204.88L119.037 224.946L93.8153 228.147C93.8153 228.147 87.803 225.471 84.5386 219.205C82.1229 214.571 84.1298 210.186 84.1298 208.793L84.1298 185.651L123.879 190.889Z" fill="url(#paint18_linear_2584_3)"/>
<path opacity="0.5" d="M123.878 190.889L121.888 204.88L114.899 216.861C89.3567 210.805 84.1279 189.323 84.1279 189.323L84.1279 185.651L123.878 190.889Z" fill="url(#paint19_linear_2584_3)"/>
<path d="M108.772 128.732C108.772 128.732 100.679 146.883 84.7112 154.755C84.7112 154.755 82.9625 164.378 83.6183 172.905C83.6183 172.905 77.8104 165.924 74.7872 169.228C70.7337 173.655 77.9296 183.17 80.5525 185.934C83.1754 188.698 101.964 207.047 120.172 201.805L147.846 199.768L149.157 161.764L132.698 153.319C132.698 153.319 119.152 142.544 118.423 134.099C118.423 134.099 115.363 147.785 123.084 155.067C123.084 155.067 108.519 146.914 108.774 128.735L108.772 128.732Z" fill="url(#paint20_linear_2584_3)"/>
<path opacity="0.6" d="M92.7914 172.57C97.1346 173.359 101.08 171.892 101.6 169.289C102.122 166.687 99.0223 163.937 94.6791 163.148C90.336 162.357 86.3903 163.827 85.868 166.429C85.3456 169.031 88.4455 171.781 92.7914 172.57Z" fill="#FDC982"/>
<path opacity="0.6" d="M136.075 178.91C139.317 179.742 142.38 178.842 142.913 176.904C143.447 174.963 141.253 172.718 138.011 171.889C134.769 171.058 131.706 171.958 131.173 173.896C130.639 175.834 132.833 178.082 136.078 178.91L136.075 178.91Z" fill="#FDC982"/>
<path d="M126.118 165.727C126.973 161.496 130.26 158.59 133.459 159.234C136.658 159.881 138.563 163.831 137.709 168.062C136.854 172.293 133.57 175.199 130.368 174.552C127.166 173.908 125.264 169.955 126.118 165.724L126.118 165.727Z" fill="url(#paint21_linear_2584_3)"/>
<path d="M130.551 166.125C129.518 165.827 128.919 164.749 129.217 163.713C129.515 162.677 130.597 162.082 131.63 162.379C132.666 162.677 133.262 163.756 132.964 164.792C132.666 165.827 131.587 166.423 130.551 166.125Z" fill="white"/>
<path d="M98.0307 160.078C98.7318 155.021 102.402 151.352 106.229 151.883C110.055 152.413 112.587 156.942 111.886 161.999C111.185 167.056 107.515 170.725 103.688 170.195C99.8616 169.664 97.3296 165.135 98.0307 160.078Z" fill="url(#paint22_linear_2584_3)"/>
<path d="M103.122 160.466C101.879 160.191 101.095 158.96 101.371 157.714C101.646 156.471 102.881 155.688 104.124 155.966C105.367 156.244 106.151 157.475 105.875 158.716C105.597 159.959 104.365 160.742 103.122 160.466Z" fill="white"/>
<path d="M121.614 178.451C120.689 178.752 119.675 178.397 119.127 177.591C118.477 176.637 117.836 175.369 118.406 174.685C119.545 173.252 124.197 174.983 124.2 176.237C124.228 177.367 122.795 178.068 121.614 178.451Z" fill="url(#paint23_linear_2584_3)"/>
<path d="M114.369 158.705C114.914 158.728 115.47 158.578 115.956 158.24C117.125 157.425 117.409 155.808 116.592 154.639C116.396 154.355 111.63 147.683 99.6732 145.022C98.2794 144.712 96.9027 145.589 96.5904 146.98C96.281 148.37 97.1581 149.749 98.5491 150.061C108.408 152.258 112.206 157.391 112.365 157.61C112.842 158.297 113.594 158.677 114.366 158.708L114.369 158.705Z" fill="url(#paint24_linear_2584_3)"/>
<path d="M125.636 161.668C125.196 161.517 124.807 161.211 124.538 160.765C123.888 159.687 124.208 158.189 125.25 157.423C125.503 157.238 131.526 152.908 141.885 154.327C143.091 154.494 143.886 155.689 143.662 157C143.437 158.311 142.276 159.239 141.073 159.074C132.528 157.902 127.791 161.194 127.592 161.333C126.982 161.781 126.261 161.878 125.636 161.665L125.636 161.668Z" fill="url(#paint25_linear_2584_3)"/>
<path d="M120.709 187.949C120.346 187.949 119.985 187.795 119.732 187.495C115.73 182.747 107.611 185.003 107.529 185.026C106.851 185.219 106.144 184.83 105.948 184.152C105.752 183.474 106.144 182.767 106.819 182.571C106.919 182.543 109.266 181.87 112.233 181.91C116.289 181.961 119.556 183.323 121.685 185.846C122.14 186.385 122.071 187.191 121.532 187.645C121.294 187.847 121.001 187.946 120.709 187.946L120.709 187.949Z" fill="url(#paint26_linear_2584_3)"/>
<path d="M111.176 62.1801C110.895 58.3009 110.305 54.6231 109.467 51.1355C103.273 25.4053 83.4539 10.1976 72.8714 3.71612C68.7753 1.20469 66.0615 0.00146484 66.0615 0.00146484C67.2963 11.9911 68.1848 24.6561 68.815 37.3041C71.4919 91.0943 69.4963 144.601 69.4963 144.601C69.7177 146.687 70.2769 147.87 71.0121 148.446C71.5884 148.9 72.2753 148.979 72.9935 148.832C74.1063 148.599 75.2956 147.816 76.2665 147.024C77.2799 146.198 78.1825 145.248 78.9802 144.218C105.082 110.479 112.718 83.3784 111.179 62.183L111.176 62.1801Z" fill="url(#paint27_linear_2584_3)"/>
<path d="M109.471 51.138L95.1669 42.9907C96.8531 94.505 77.431 135.874 72.9971 148.834C74.1098 148.602 75.2992 147.818 76.27 147.027C77.2834 146.201 78.1861 145.25 78.9838 144.22C109.86 104.31 114.895 73.687 109.471 51.1408L109.471 51.138Z" fill="url(#paint28_linear_2584_3)"/>
<path d="M111.179 62.1815C110.898 58.3023 110.308 54.6245 109.47 51.1369C100.875 15.4432 66.0615 0 66.0615 0C67.2963 11.9896 68.1848 24.6547 68.815 37.3027C77.7198 38.1597 98.706 42.3057 111.179 62.1815Z" fill="url(#paint29_linear_2584_3)"/>
<path opacity="0.4" d="M71.0121 148.446C73.0503 137.171 80.8878 86.0459 72.8714 3.71612C68.7753 1.20469 66.0615 0.00146484 66.0615 0.00146484C67.2963 11.9911 68.1848 24.6561 68.815 37.3041C71.4919 91.0943 69.4963 144.601 69.4963 144.601C69.7177 146.687 70.2769 147.87 71.0121 148.446Z" fill="#FDC982"/>
<path d="M94.8433 230.577C67.0104 232.887 65.3554 218.355 65.3554 218.355C65.3554 218.355 64.589 212.753 69.1933 206.995C69.7837 206.258 70.4678 205.647 71.2116 205.145C76.2757 201.72 84.1302 203.235 84.1302 203.235C84.1302 218.522 93.8157 225.779 93.8157 225.779L94.8433 230.577Z" fill="url(#paint30_linear_2584_3)"/>
<path d="M93.8167 225.778C67.5563 213.806 71.2125 205.148 71.2125 205.148C76.2767 201.72 84.1312 203.235 84.1312 203.235C84.1312 218.522 93.8167 225.778 93.8167 225.778Z" fill="url(#paint31_linear_2584_3)"/>
<path d="M112.434 224.949C112.434 224.949 110.444 212.61 113.762 203.719C117.08 194.829 133.405 190.186 133.405 190.186L138.688 211.679L112.434 224.946L112.434 224.949Z" fill="url(#paint32_linear_2584_3)"/>
<path d="M120.703 220.313C120.703 220.313 120.76 205.945 125.259 200.25C129.758 194.554 146.501 194.812 146.501 194.812L144.167 216.462L120.703 220.313Z" fill="url(#paint33_linear_2584_3)"/>
<path d="M107.174 226.37C107.174 226.37 120.183 221.662 131.734 207.536L138.686 220.876L126.911 232.159L107.174 226.37Z" fill="url(#paint34_linear_2584_3)"/>
<path d="M101.334 216.233L105.981 216.233L109.992 221.299L107.758 228.527L103.471 229.568L101.334 216.233Z" fill="url(#paint35_linear_2584_3)"/>
<path d="M90.1289 224.02L92.7887 217.377L101.333 216.233L105.688 221.651L103.471 229.568L93.8163 230.652L90.1289 224.02Z" fill="url(#paint36_linear_2584_3)"/>
<path d="M152.452 353.043L151.157 353.71C136.952 336.953 125.598 315.616 118.425 300.272C110.201 282.683 105.549 268.951 105.503 268.815C105.378 268.443 105.577 268.04 105.949 267.915C106.321 267.79 106.724 267.989 106.849 268.361C106.894 268.497 111.527 282.167 119.719 299.687C126.887 315.022 138.253 336.371 152.452 353.043Z" fill="url(#paint37_linear_2584_3)"/>
<path d="M171.822 473.82C171.822 473.82 187.369 450.096 243.432 453.181L265.548 473.82C265.548 473.82 177.479 523.367 163.453 512.57L151.4 481.204L171.822 473.82Z" fill="url(#paint38_linear_2584_3)"/>
<path d="M169.05 467.329C168.212 474.029 171.82 473.819 171.82 473.819L161.613 491.011L131.96 486.501C122.757 466.486 115.178 430.129 110.378 402.719C109.753 399.143 109.174 395.721 108.646 392.508C106.154 377.337 104.771 366.806 104.771 366.806L107.675 362.416L113.858 361.182L122.919 359.371L154.277 353.111L169.887 378.895L175.125 387.545C176.271 392.193 176.464 399.396 176.107 407.622C175.09 430.901 169.669 462.377 169.05 467.329Z" fill="url(#paint39_linear_2584_3)"/>
<path d="M166.17 389.644L162.049 495.921L164.034 495.998L168.156 389.721L166.17 389.644Z" fill="url(#paint40_linear_2584_3)"/>
<path d="M124.024 362.763C123.704 361.605 123.335 360.473 122.92 359.372L113.859 361.182C114.413 362.459 114.887 363.796 115.27 365.183C118.151 375.59 115.262 386.092 108.647 392.508C109.175 395.721 109.755 399.143 110.379 402.719C122.443 394.747 128.416 378.629 124.024 362.763Z" fill="url(#paint41_linear_2584_3)"/>
<path style="mix-blend-mode:multiply" opacity="0.5" d="M176.109 407.622C150.692 394.917 134.631 370.251 134.631 370.251L169.89 378.895L175.127 387.544C176.274 392.193 176.467 399.395 176.109 407.622Z" fill="url(#paint42_linear_2584_3)"/>
<path d="M233.941 420.382C214.618 414.984 189.056 401.979 168.706 390.565C149.298 379.682 134.631 370.25 134.631 370.25L151.404 349.23L204.198 348.174L206.344 348.132L208.245 353.106L233.941 420.382Z" fill="url(#paint43_linear_2584_3)"/>
<path d="M152.453 357.114L134.629 370.253L104.772 366.808C104.36 364.935 103.934 361.356 103.537 357.242C103.392 355.76 103.253 354.208 103.12 352.639C102.992 351.138 102.87 349.619 102.754 348.135C102.569 345.743 102.402 343.439 102.263 341.421C101.976 337.295 101.8 334.375 101.8 334.375L123.444 333.77L127.362 333.66L134.456 344.449L151.402 349.233L152.453 357.114Z" fill="url(#paint44_linear_2584_3)"/>
<path d="M121.735 358.087L103.539 357.238C103.395 355.757 103.255 354.205 103.122 352.635C102.994 351.134 102.872 349.616 102.756 348.132L113.347 348.504L117.276 352.99L121.735 358.087Z" fill="url(#paint45_linear_2584_3)"/>
<path d="M117.276 352.99L103.122 352.635C102.994 351.134 102.872 349.616 102.756 348.132L113.347 348.504L117.276 352.99Z" fill="url(#paint46_linear_2584_3)"/>
<path d="M151.403 349.233L128.96 350.439L120.688 340.604L120.688 336.937L123.445 333.77L127.362 333.66L134.456 344.449L151.403 349.233Z" fill="url(#paint47_linear_2584_3)"/>
<path d="M127.362 333.66L120.688 340.604L102.263 341.421C101.976 337.295 101.8 334.375 101.8 334.375L127.362 333.66Z" fill="url(#paint48_linear_2584_3)"/>
<path d="M169.073 486.595L167.268 485.766C167.404 485.468 170.748 478.371 183.008 471.294C190.133 467.179 198.833 463.915 208.868 461.588C221.367 458.691 235.991 457.249 252.339 457.292L252.333 459.278C252.086 459.278 251.837 459.278 251.59 459.278C231.52 459.278 203.812 461.673 184.209 472.897C178.032 476.433 174.245 479.971 172.156 482.318C169.896 484.855 169.084 486.578 169.076 486.598L169.073 486.595Z" fill="url(#paint49_linear_2584_3)"/>
<path d="M175.718 474.004C176.745 471.95 175.911 469.453 173.856 468.427C171.801 467.401 169.304 468.235 168.278 470.289L160.59 485.676C159.564 487.731 160.397 490.227 162.452 491.253C164.507 492.279 167.005 491.446 168.031 489.392L175.718 474.004Z" fill="url(#paint50_linear_2584_3)"/>
<path d="M177.758 513.073L172.365 523.616C172.365 523.616 167.394 524.325 161.357 524.575C156.415 524.779 150.757 524.674 146.522 523.616L132.215 510.624C132.215 510.624 131.389 507.772 130.83 502.971C130.495 500.074 130.256 496.464 130.356 492.343C130.418 489.829 130.606 487.125 130.975 484.278L141.705 478.223C141.705 478.223 155.219 478.77 165.106 486.597C165.106 486.597 177.753 498.885 177.758 513.073Z" fill="url(#paint51_linear_2584_3)"/>
<path d="M165.105 486.597L160.867 494.038C150.801 488.039 142.092 486.597 142.092 486.597L141.703 478.223C141.703 478.223 155.218 478.77 165.105 486.597Z" fill="url(#paint52_linear_2584_3)"/>
<path d="M142.091 486.597L130.354 492.343C130.416 489.829 130.603 487.125 130.972 484.278L141.702 478.223L142.091 486.597Z" fill="url(#paint53_linear_2584_3)"/>
<path d="M177.758 513.074L172.365 523.617C170.451 506.615 160.868 494.038 160.868 494.038L165.106 486.598C165.106 486.598 177.752 498.885 177.758 513.074Z" fill="url(#paint54_linear_2584_3)"/>
<path d="M161.358 524.573C156.416 524.777 150.758 524.672 146.523 523.614L132.216 510.622C132.216 510.622 131.39 507.77 130.831 502.969L141.706 498.025L153.407 502.325C153.407 502.325 160.285 515.154 161.358 524.573Z" fill="url(#paint55_linear_2584_3)"/>
<path d="M3.9783 359.514C3.9783 359.514 0.316444 357.238 0.00987039 353.784C-0.361992 349.581 9.89688 343.08 9.89688 343.08L14.1804 349.868L3.9783 359.514Z" fill="url(#paint56_linear_2584_3)"/>
<path d="M22.0078 366.62C22.0078 366.62 19.0896 372.335 15.5924 371.651C12.0952 370.967 2.79296 363.206 2.7078 359.795C2.62264 356.384 9.63694 348.535 9.63694 348.535L22.0049 353.909L22.0049 366.617L22.0078 366.62Z" fill="url(#paint57_linear_2584_3)"/>
<path d="M25.516 338.876C25.516 338.876 36.6122 342.65 40.6034 354.506C40.6034 354.506 25.252 369.76 24.0626 369.76C22.8732 369.76 8.35352 362.452 7.42812 359.981C6.50272 357.509 10.2072 351.436 10.2072 351.436C10.2072 351.436 4.33967 347.318 3.51362 344.231C2.68758 341.143 6.96826 340.601 12.2652 341.041C12.2652 341.041 16.6282 339.285 25.5131 338.876L25.516 338.876Z" fill="url(#paint58_linear_2584_3)"/>
<path d="M16.6836 359.037C16.6325 359.037 16.5814 359.031 16.5275 359.014C16.2266 358.929 16.0506 358.614 16.1357 358.313C16.1811 358.157 17.24 354.465 19.1958 352.376C21.2084 350.228 25.1115 349.885 25.2762 349.87C25.5884 349.842 25.8609 350.078 25.8893 350.39C25.9149 350.702 25.6821 350.977 25.3698 351.003C25.3329 351.006 21.7335 351.326 20.0247 353.154C18.2562 355.038 17.2371 358.588 17.2286 358.622C17.1576 358.872 16.9305 359.037 16.6836 359.037Z" fill="url(#paint59_linear_2584_3)"/>
<path d="M16.7877 355.118C13.6056 355.118 10.009 352.022 9.83304 351.869C9.59743 351.662 9.57188 351.304 9.7791 351.069C9.98632 350.833 10.344 350.807 10.5796 351.012C11.8229 352.093 15.5586 354.701 17.8664 353.793C19.0416 353.33 19.3226 352.048 19.3851 351.327C19.5753 349.153 18.3518 346.085 15.6466 344.428C15.3798 344.264 15.2946 343.914 15.4592 343.648C15.6239 343.381 15.973 343.296 16.2399 343.46C19.4844 345.447 20.7306 348.983 20.5177 351.426C20.3729 353.1 19.5582 354.349 18.2837 354.851C17.8068 355.039 17.3015 355.121 16.7877 355.121L16.7877 355.118Z" fill="url(#paint60_linear_2584_3)"/>
<path d="M78.2165 325.66L71.6252 402.78L67.3104 396.752L56.8018 382.078L63.1036 319.062L63.8501 311.61L78.2165 325.66Z" fill="url(#paint61_linear_2584_3)"/>
<path d="M73.1552 328.899L67.3104 396.753L56.8018 382.079L63.1036 319.063L73.1552 328.899Z" fill="url(#paint62_linear_2584_3)"/>
<path d="M96.7534 379.018L88.9017 396.752L85.4243 388.709L74.9043 364.367L77.8309 330.126L78.2113 325.66L93.9346 321.448L96.7534 379.018Z" fill="url(#paint63_linear_2584_3)"/>
<path d="M91.7204 376.2L85.4243 388.709L74.9043 364.366L77.8309 330.126L88.9017 327.688L91.7204 376.2Z" fill="url(#paint64_linear_2584_3)"/>
<path d="M88.9062 396.75L107.329 384.258L96.7579 379.017L88.9062 396.75Z" fill="url(#paint65_linear_2584_3)"/>
<path d="M107.329 384.26L101.803 334.374L93.9395 321.448L96.7582 379.018L107.329 384.26Z" fill="url(#paint66_linear_2584_3)"/>
<path d="M310.186 468.611C310.186 468.611 355.124 481.486 382.526 495.184L392.938 477.377L389.12 467.975C389.12 467.975 363.345 440.667 344.437 434.915L310.186 468.608L310.186 468.611Z" fill="url(#paint67_linear_2584_3)"/>
<path d="M392.255 480.324C365.614 455.019 320.883 436.023 320.435 435.833L321.207 434.002C321.658 434.193 366.719 453.325 393.626 478.885L392.258 480.324L392.255 480.324Z" fill="url(#paint68_linear_2584_3)"/>
<path d="M447.15 550.619C444.422 550.86 441.036 551.408 437.36 551.32C429.099 551.118 419.357 547.693 412.235 530.3C411.52 528.55 410.784 526.881 410.035 525.292C409.186 523.49 408.323 521.787 407.452 520.181C405.476 516.54 403.461 513.393 401.508 510.691C400.307 509.026 399.129 507.53 397.999 506.193C392.234 499.374 387.74 496.695 387.74 496.695L396.018 468.987C402.742 469.334 407.94 469.938 411.815 470.565C418.335 471.621 421.109 472.73 421.109 472.73C436.889 481.848 434.513 500.864 436.73 503.208C438.944 505.552 448.064 508.288 453.145 524.012C458.227 539.739 447.15 550.619 447.15 550.619Z" fill="url(#paint69_linear_2584_3)"/>
<path d="M413.561 497.094C409.981 503.916 405.164 508.201 401.508 510.687C400.307 509.022 399.129 507.526 397.999 506.189C401.073 504.146 405.388 500.454 408.533 494.458C409.26 493.07 410.975 492.534 412.365 493.263C413.754 493.99 414.29 495.707 413.561 497.094Z" fill="url(#paint70_linear_2584_3)"/>
<path d="M422.59 513.239C418.988 518.674 413.923 522.72 410.037 525.289C409.189 523.487 408.326 521.784 407.454 520.178C407.579 520.093 407.704 520.005 407.832 519.917C411.099 517.649 415.056 514.329 417.858 510.104C418.724 508.795 420.486 508.441 421.792 509.306C423.098 510.172 423.456 511.931 422.59 513.239Z" fill="url(#paint71_linear_2584_3)"/>
<path d="M447.153 550.613C444.425 550.854 441.038 551.401 437.362 551.313C461.939 529.017 429.479 503.886 429.479 503.886C428.582 486.677 416.598 474.682 411.817 470.559C418.338 471.614 421.111 472.724 421.111 472.724C436.891 481.842 434.515 500.858 436.732 503.202C438.946 505.546 448.067 508.281 453.148 524.005C458.229 539.732 447.153 550.613 447.153 550.613Z" fill="url(#paint72_linear_2584_3)"/>
<path d="M384.932 463.753C384.932 463.753 391.651 458.012 397.572 464.621C404.518 472.377 395.576 500.025 387.645 501.83C378.374 503.942 376.572 496.555 378.499 493.232C378.499 493.232 389.391 479.84 384.932 463.75L384.932 463.753Z" fill="url(#paint73_linear_2584_3)"/>
<path opacity="0.5" d="M289.913 520.867C71.851 388.907 113.67 119.349 113.67 119.349C183.242 69.3979 289.916 69.398 289.916 69.398C289.916 69.398 396.587 69.3979 466.162 119.349C466.162 119.349 507.981 388.907 289.916 520.867L289.913 520.867Z" fill="url(#paint74_linear_2584_3)"/>
<path d="M289.911 501.265C94.2119 380.765 131.742 134.618 131.742 134.618C194.178 89.0064 289.911 89.0064 289.911 89.0064C289.911 89.0064 385.642 89.0064 448.08 134.618C448.08 134.618 485.61 380.765 289.911 501.265Z" fill="url(#paint75_linear_2584_3)"/>
<path d="M448.088 134.618L402.684 147.388L289.919 124.728L289.919 89.0063C289.919 89.0063 385.649 89.0064 448.088 134.618Z" fill="url(#paint76_linear_2584_3)"/>
<path d="M289.911 408.781L289.911 501.262C152.075 416.389 129.939 269.188 128.898 189.562C128.46 156.133 131.742 134.614 131.742 134.614L177.143 147.384L184.978 165.543L289.911 408.781Z" fill="url(#paint77_linear_2584_3)"/>
<path style="mix-blend-mode:multiply" opacity="0.5" d="M184.978 165.543L175.417 167.584C152.748 130.167 128.898 189.562 128.898 189.562C128.46 156.133 131.742 134.614 131.742 134.614L177.143 147.384L184.978 165.543Z" fill="url(#paint78_linear_2584_3)"/>
<path d="M450.865 193.478C449.38 262.913 431.584 379.543 339.581 463.865C324.973 477.248 308.498 489.823 289.919 501.262L289.919 408.781L397.14 160.234L402.684 147.384L448.088 134.614C448.088 134.614 451.628 157.825 450.865 193.478Z" fill="url(#paint79_linear_2584_3)"/>
<path style="mix-blend-mode:multiply" opacity="0.5" d="M339.581 463.867C324.973 477.25 308.498 489.824 289.919 501.263L289.919 408.819C289.919 410.536 290.262 472.074 339.581 463.867Z" fill="url(#paint80_linear_2584_3)"/>
<path style="mix-blend-mode:multiply" opacity="0.5" d="M450.86 193.478C432.014 136.394 404.604 172.859 404.604 172.859L397.136 160.234L402.68 147.384L448.084 134.614C448.084 134.614 451.624 157.825 450.86 193.478Z" fill="url(#paint81_linear_2584_3)"/>
<path d="M402.681 147.384C358.166 114.863 289.913 114.863 289.913 114.863C289.913 114.863 221.661 114.863 177.145 147.384C177.145 147.384 150.388 322.873 289.913 408.781C429.436 322.87 402.681 147.384 402.681 147.384Z" fill="url(#paint82_linear_2584_3)"/>
<path d="M384.336 157.074C347.062 128.733 289.914 128.733 289.914 128.733C289.914 128.733 232.766 128.733 195.492 157.074C195.492 157.074 173.089 310.008 289.914 384.874C406.741 310.005 384.336 157.074 384.336 157.074Z" fill="url(#paint83_linear_2584_3)"/>
<path style="mix-blend-mode:multiply" opacity="0.5" d="M202.824 162.088C202.824 162.088 199.083 184.231 202.824 213.458C202.824 213.458 201.16 169.356 247.632 144.261C247.632 144.261 218.774 149.971 202.824 162.088Z" fill="url(#paint84_linear_2584_3)"/>
<path style="mix-blend-mode:multiply" opacity="0.5" d="M377.341 162.088C377.341 162.088 381.083 184.231 377.341 213.458C377.341 213.458 379.005 169.356 332.533 144.261C332.533 144.261 361.391 149.971 377.341 162.088Z" fill="url(#paint85_linear_2584_3)"/>
<path style="mix-blend-mode:multiply" opacity="0.5" d="M319.139 353.211C312.406 358.189 302.593 360.496 296.228 361.526C292.047 362.201 287.783 362.201 283.599 361.526C277.238 360.496 267.422 358.189 260.688 353.211C260.688 353.211 272.389 368.55 289.912 377.551C307.435 368.55 319.136 353.208 319.136 353.208L319.139 353.211Z" fill="url(#paint86_linear_2584_3)"/>
<path d="M320.001 181.834C310.787 179.476 307.801 191.429 307.801 191.429C307.801 191.429 312.794 155.886 289.912 153.76C267.029 155.886 272.023 191.429 272.023 191.429C272.023 191.429 269.036 179.476 259.822 181.834C252.016 183.832 251.102 196.174 252.95 202.218C255.993 212.173 264.293 219.631 264.293 219.631L315.531 219.631C315.531 219.631 323.831 212.173 326.874 202.218C328.722 196.174 327.808 183.832 320.001 181.834Z" fill="url(#paint87_linear_2584_3)"/>
<path d="M288.923 210.314C288.531 210.314 288.213 209.997 288.213 209.605L288.213 165.744C288.213 165.352 288.531 165.035 288.923 165.035C289.314 165.035 289.632 165.352 289.632 165.744L289.632 209.605C289.632 209.997 289.314 210.314 288.923 210.314Z" fill="url(#paint88_linear_2584_3)"/>
<path d="M306.485 218.873C306.392 218.873 306.295 218.853 306.204 218.814C305.844 218.658 305.679 218.24 305.835 217.88L318.155 189.34C318.311 188.98 318.728 188.815 319.089 188.972C319.449 189.128 319.614 189.545 319.458 189.905L307.138 218.445C307.022 218.714 306.761 218.873 306.485 218.873Z" fill="url(#paint89_linear_2584_3)"/>
<path d="M274.44 218.873C274.165 218.873 273.904 218.711 273.787 218.444L261.465 189.905C261.309 189.544 261.476 189.127 261.834 188.971C262.194 188.815 262.612 188.982 262.768 189.34L275.09 217.88C275.246 218.24 275.079 218.657 274.721 218.813C274.63 218.853 274.534 218.873 274.44 218.873Z" fill="url(#paint90_linear_2584_3)"/>
<path d="M322.544 239.971C322.405 243.844 321.55 252.031 320.006 262.117C319.328 266.567 318.513 271.385 317.568 276.368C312.151 304.928 302.429 338.8 288.926 338.8C280.359 338.8 273.313 325.167 267.925 307.905C266.605 303.679 265.385 299.235 264.266 294.72C260.241 278.48 257.525 261.325 256.207 250.093C255.685 245.652 255.384 242.136 255.308 239.971C255.276 239.071 255.268 238.197 255.282 237.346C255.836 205.052 288.926 205.058 288.926 205.058C288.926 205.058 323.787 205.052 322.544 239.971Z" fill="url(#paint91_linear_2584_3)"/>
<path d="M256.207 250.094C255.685 245.653 255.384 242.137 255.308 239.971C255.276 239.072 255.268 238.198 255.282 237.347C264.298 236.963 280.634 236.759 287.648 239.764C292.866 242.001 273.943 246.527 256.207 250.094Z" fill="url(#paint92_linear_2584_3)"/>
<path d="M320.004 262.118C319.325 266.568 318.511 271.386 317.565 276.37C302.015 275.356 278.673 273.222 282.866 269.726C287.887 265.546 311.275 262.955 320.004 262.118Z" fill="url(#paint93_linear_2584_3)"/>
<path d="M267.928 307.906C266.608 303.68 265.387 299.236 264.269 294.722C270.604 294.631 286.015 294.824 293.024 298.538C298.312 301.339 282.075 305.213 267.928 307.906Z" fill="url(#paint94_linear_2584_3)"/>
<defs>
<linearGradient id="paint0_linear_2584_3" x1="68.768" y1="260.631" x2="28.9896" y2="201.83" gradientUnits="userSpaceOnUse">
<stop stop-color="#071A2D"/>
<stop offset="0.23" stop-color="#071B2E"/>
<stop offset="0.31" stop-color="#0A1E35"/>
<stop offset="0.37" stop-color="#0F2541"/>
<stop offset="0.42" stop-color="#162F52"/>
<stop offset="0.46" stop-color="#203D6A"/>
<stop offset="1" stop-color="#4A759F"/>
</linearGradient>
<linearGradient id="paint1_linear_2584_3" x1="102.802" y1="266.655" x2="27.0797" y2="370.637" gradientUnits="userSpaceOnUse">
<stop stop-color="#071A2D"/>
<stop offset="0.46" stop-color="#203D6A"/>
<stop offset="1" stop-color="#4A759F"/>
</linearGradient>
<linearGradient id="paint2_linear_2584_3" x1="110.043" y1="332.306" x2="-19.5528" y2="435.486" gradientUnits="userSpaceOnUse">
<stop stop-color="#071A2D"/>
<stop offset="0.46" stop-color="#203D6A"/>
<stop offset="1" stop-color="#4A759F"/>
</linearGradient>
<linearGradient id="paint3_linear_2584_3" x1="44.4316" y1="370.34" x2="32.8364" y2="336.483" gradientUnits="userSpaceOnUse">
<stop stop-color="#386E9C"/>
<stop offset="1" stop-color="white"/>
</linearGradient>
<linearGradient id="paint4_linear_2584_3" x1="184.524" y1="322.879" x2="88.3439" y2="239.825" gradientUnits="userSpaceOnUse">
<stop stop-color="#071A2D"/>
<stop offset="0.46" stop-color="#203D6A"/>
<stop offset="1" stop-color="#4A759F"/>
</linearGradient>
<linearGradient id="paint5_linear_2584_3" x1="163.937" y1="354.194" x2="128.379" y2="255.018" gradientUnits="userSpaceOnUse">
<stop stop-color="#386E9C"/>
<stop offset="1" stop-color="white"/>
</linearGradient>
<linearGradient id="paint6_linear_2584_3" x1="161.987" y1="355.963" x2="160.026" y2="330.468" gradientUnits="userSpaceOnUse">
<stop stop-color="#386E9C"/>
<stop offset="1" stop-color="white"/>
</linearGradient>
<linearGradient id="paint7_linear_2584_3" x1="99.2449" y1="333.168" x2="84.5947" y2="263.354" gradientUnits="userSpaceOnUse">
<stop stop-color="#386E9C"/>
<stop offset="1" stop-color="white"/>
</linearGradient>
<linearGradient id="paint8_linear_2584_3" x1="129.067" y1="267.393" x2="93.1525" y2="228.164" gradientUnits="userSpaceOnUse">
<stop stop-color="#386E9C"/>
<stop offset="1" stop-color="white"/>
</linearGradient>
<linearGradient id="paint9_linear_2584_3" x1="111.165" y1="283.348" x2="102.126" y2="244.555" gradientUnits="userSpaceOnUse">
<stop stop-color="#EC1A63"/>
<stop offset="1" stop-color="#FAA827"/>
</linearGradient>
<linearGradient id="paint10_linear_2584_3" x1="108.122" y1="256.15" x2="97.5744" y2="208.181" gradientUnits="userSpaceOnUse">
<stop stop-color="#071A2D"/>
<stop offset="0.46" stop-color="#203D6A"/>
<stop offset="1" stop-color="#4A759F"/>
</linearGradient>
<linearGradient id="paint11_linear_2584_3" x1="115.663" y1="244.943" x2="115.777" y2="214.164" gradientUnits="userSpaceOnUse">
<stop stop-color="#386E9C"/>
<stop offset="1" stop-color="white"/>
</linearGradient>
<linearGradient id="paint12_linear_2584_3" x1="88.3271" y1="251.408" x2="69.511" y2="205.798" gradientUnits="userSpaceOnUse">
<stop stop-color="#071A2D"/>
<stop offset="0.23" stop-color="#071B2E"/>
<stop offset="0.31" stop-color="#0A1E35"/>
<stop offset="0.37" stop-color="#0F2541"/>
<stop offset="0.42" stop-color="#162F52"/>
<stop offset="0.46" stop-color="#203D6A"/>
<stop offset="1" stop-color="#4A759F"/>
</linearGradient>
<linearGradient id="paint13_linear_2584_3" x1="-224.45" y1="360.954" x2="155.203" y2="99.8239" gradientUnits="userSpaceOnUse">
<stop stop-color="#FF0061"/>
<stop offset="1" stop-color="#FFAA24"/>
</linearGradient>
<linearGradient id="paint14_linear_2584_3" x1="-61.4187" y1="258.764" x2="275.356" y2="39.1154" gradientUnits="userSpaceOnUse">
<stop stop-color="#FF0061"/>
<stop offset="1" stop-color="#FFAA24"/>
</linearGradient>
<linearGradient id="paint15_linear_2584_3" x1="268.752" y1="145.345" x2="149.309" y2="-11.8248" gradientUnits="userSpaceOnUse">
<stop stop-color="#FF0061"/>
<stop offset="1" stop-color="#FFAA24"/>
</linearGradient>
<linearGradient id="paint16_linear_2584_3" x1="104.876" y1="184.431" x2="113.268" y2="51.4065" gradientUnits="userSpaceOnUse">
<stop stop-color="#44262A"/>
<stop offset="0.11" stop-color="#4A282B"/>
<stop offset="0.25" stop-color="#5B302C"/>
<stop offset="0.41" stop-color="#773B2F"/>
<stop offset="0.5" stop-color="#894330"/>
<stop offset="1" stop-color="#EC7D61"/>
</linearGradient>
<linearGradient id="paint17_linear_2584_3" x1="94.2702" y1="148.226" x2="99.0533" y2="72.4147" gradientUnits="userSpaceOnUse">
<stop stop-color="#44262A"/>
<stop offset="0.11" stop-color="#4A282B"/>
<stop offset="0.25" stop-color="#5B302C"/>
<stop offset="0.41" stop-color="#773B2F"/>
<stop offset="0.5" stop-color="#894330"/>
<stop offset="1" stop-color="#EC7D61"/>
</linearGradient>
<linearGradient id="paint18_linear_2584_3" x1="105.976" y1="167.909" x2="99.4908" y2="234.949" gradientUnits="userSpaceOnUse">
<stop stop-color="#EC1A63"/>
<stop offset="1" stop-color="#FAA827"/>
</linearGradient>
<linearGradient id="paint19_linear_2584_3" x1="103.769" y1="194.752" x2="98.5798" y2="337.481" gradientUnits="userSpaceOnUse">
<stop stop-color="#EC1A63"/>
<stop offset="1" stop-color="#FAA827"/>
</linearGradient>
<linearGradient id="paint20_linear_2584_3" x1="112.499" y1="288.273" x2="111.324" y2="163.027" gradientUnits="userSpaceOnUse">
<stop stop-color="#EC1A63"/>
<stop offset="1" stop-color="#FAA827"/>
</linearGradient>
<linearGradient id="paint21_linear_2584_3" x1="126.503" y1="202.456" x2="135.213" y2="145.118" gradientUnits="userSpaceOnUse">
<stop stop-color="#081A2D"/>
<stop offset="0.5" stop-color="#213D6A"/>
<stop offset="1" stop-color="#4A74A1"/>
</linearGradient>
<linearGradient id="paint22_linear_2584_3" x1="101.144" y1="203.456" x2="107.274" y2="135.121" gradientUnits="userSpaceOnUse">
<stop stop-color="#081A2D"/>
<stop offset="0.5" stop-color="#213D6A"/>
<stop offset="1" stop-color="#4A74A1"/>
</linearGradient>
<linearGradient id="paint23_linear_2584_3" x1="119.576" y1="181.824" x2="129.749" y2="143.917" gradientUnits="userSpaceOnUse">
<stop stop-color="#EC1A63"/>
<stop offset="1" stop-color="#FAA827"/>
</linearGradient>
<linearGradient id="paint24_linear_2584_3" x1="106.597" y1="160.235" x2="107.352" y2="126.218" gradientUnits="userSpaceOnUse">
<stop stop-color="#EC1A63"/>
<stop offset="1" stop-color="#FAA827"/>
</linearGradient>
<linearGradient id="paint25_linear_2584_3" x1="130.569" y1="165.85" x2="141.613" y2="135.833" gradientUnits="userSpaceOnUse">
<stop stop-color="#EC1A63"/>
<stop offset="1" stop-color="#FAA827"/>
</linearGradient>
<linearGradient id="paint26_linear_2584_3" x1="113.922" y1="190.489" x2="114.018" y2="164.253" gradientUnits="userSpaceOnUse">
<stop stop-color="#EC1A63"/>
<stop offset="1" stop-color="#FAA827"/>
</linearGradient>
<linearGradient id="paint27_linear_2584_3" x1="-17.9711" y1="580.308" x2="78.3985" y2="95.1236" gradientUnits="userSpaceOnUse">
<stop stop-color="#FF0061"/>
<stop offset="1" stop-color="#FFAA24"/>
</linearGradient>
<linearGradient id="paint28_linear_2584_3" x1="30.8366" y1="379.602" x2="125.299" y2="-41.565" gradientUnits="userSpaceOnUse">
<stop stop-color="#FF0061"/>
<stop offset="1" stop-color="#FFAA24"/>
</linearGradient>
<linearGradient id="paint29_linear_2584_3" x1="199.769" y1="45.0706" x2="-9.89542" y2="13.6952" gradientUnits="userSpaceOnUse">
<stop stop-color="#FF0061"/>
<stop offset="1" stop-color="#FFAA24"/>
</linearGradient>
<linearGradient id="paint30_linear_2584_3" x1="99.6491" y1="239.201" x2="71.8396" y2="208.823" gradientUnits="userSpaceOnUse">
<stop stop-color="#386E9C"/>
<stop offset="1" stop-color="white"/>
</linearGradient>
<linearGradient id="paint31_linear_2584_3" x1="85.6669" y1="227.467" x2="64.7464" y2="156.437" gradientUnits="userSpaceOnUse">
<stop stop-color="#386E9C"/>
<stop offset="1" stop-color="white"/>
</linearGradient>
<linearGradient id="paint32_linear_2584_3" x1="128.109" y1="246.298" x2="123.101" y2="192.07" gradientUnits="userSpaceOnUse">
<stop stop-color="#386E9C"/>
<stop offset="1" stop-color="white"/>
</linearGradient>
<linearGradient id="paint33_linear_2584_3" x1="133.602" y1="213.15" x2="133.602" y2="172.346" gradientUnits="userSpaceOnUse">
<stop stop-color="#386E9C"/>
<stop offset="1" stop-color="white"/>
</linearGradient>
<linearGradient id="paint34_linear_2584_3" x1="116.95" y1="247.841" x2="134.656" y2="176.108" gradientUnits="userSpaceOnUse">
<stop stop-color="#071A2D"/>
<stop offset="0.23" stop-color="#071B2E"/>
<stop offset="0.31" stop-color="#0A1E35"/>
<stop offset="0.37" stop-color="#0F2541"/>
<stop offset="0.42" stop-color="#162F52"/>
<stop offset="0.46" stop-color="#203D6A"/>
<stop offset="1" stop-color="#4A759F"/>
</linearGradient>
<linearGradient id="paint35_linear_2584_3" x1="107.522" y1="236.123" x2="104.538" y2="208.259" gradientUnits="userSpaceOnUse">
<stop stop-color="#071A2D"/>
<stop offset="0.46" stop-color="#203D6A"/>
<stop offset="1" stop-color="#4A759F"/>
</linearGradient>
<linearGradient id="paint36_linear_2584_3" x1="102.565" y1="249.847" x2="97.5918" y2="220.986" gradientUnits="userSpaceOnUse">
<stop stop-color="#386E9C"/>
<stop offset="1" stop-color="white"/>
</linearGradient>
<linearGradient id="paint37_linear_2584_3" x1="160.65" y1="345.537" x2="97.0082" y2="276.018" gradientUnits="userSpaceOnUse">
<stop stop-color="#EC1A63"/>
<stop offset="1" stop-color="#FAA827"/>
</linearGradient>
<linearGradient id="paint38_linear_2584_3" x1="157.892" y1="487.362" x2="294.465" y2="474.411" gradientUnits="userSpaceOnUse">
<stop stop-color="#071A2D"/>
<stop offset="0.46" stop-color="#203D6A"/>
<stop offset="1" stop-color="#4A759F"/>
</linearGradient>
<linearGradient id="paint39_linear_2584_3" x1="140.331" y1="356.474" x2="141.585" y2="535.595" gradientUnits="userSpaceOnUse">
<stop stop-color="#071A2D"/>
<stop offset="0.46" stop-color="#203D6A"/>
<stop offset="1" stop-color="#4A759F"/>
</linearGradient>
<linearGradient id="paint40_linear_2584_3" x1="168.742" y1="323.527" x2="163.763" y2="485.987" gradientUnits="userSpaceOnUse">
<stop stop-color="#EC1A63"/>
<stop offset="1" stop-color="#FAA827"/>
</linearGradient>
<linearGradient id="paint41_linear_2584_3" x1="125.728" y1="409.867" x2="106.841" y2="349.652" gradientUnits="userSpaceOnUse">
<stop stop-color="#386E9C"/>
<stop offset="1" stop-color="white"/>
</linearGradient>
<linearGradient id="paint42_linear_2584_3" x1="155.725" y1="409.793" x2="154.672" y2="314.474" gradientUnits="userSpaceOnUse">
<stop stop-color="#396E9B"/>
<stop offset="1" stop-color="white"/>
</linearGradient>
<linearGradient id="paint43_linear_2584_3" x1="110.227" y1="353.501" x2="253.476" y2="393.607" gradientUnits="userSpaceOnUse">
<stop stop-color="#071A2D"/>
<stop offset="0.46" stop-color="#203D6A"/>
<stop offset="1" stop-color="#4A759F"/>
</linearGradient>
<linearGradient id="paint44_linear_2584_3" x1="126.638" y1="370.054" x2="128.105" y2="297.188" gradientUnits="userSpaceOnUse">
<stop stop-color="#386E9C"/>
<stop offset="1" stop-color="white"/>
</linearGradient>
<linearGradient id="paint45_linear_2584_3" x1="112.674" y1="365.434" x2="111.84" y2="341.395" gradientUnits="userSpaceOnUse">
<stop stop-color="#EC1A63"/>
<stop offset="1" stop-color="#FAA827"/>
</linearGradient>
<linearGradient id="paint46_linear_2584_3" x1="110.017" y1="367.71" x2="110.017" y2="348.115" gradientUnits="userSpaceOnUse">
<stop stop-color="#EC1A63"/>
<stop offset="1" stop-color="#FAA827"/>
</linearGradient>
<linearGradient id="paint47_linear_2584_3" x1="136.863" y1="346.467" x2="113.836" y2="302.796" gradientUnits="userSpaceOnUse">
<stop stop-color="#071A2D"/>
<stop offset="0.46" stop-color="#203D6A"/>
<stop offset="1" stop-color="#4A759F"/>
</linearGradient>
<linearGradient id="paint48_linear_2584_3" x1="122.573" y1="339.443" x2="51.1778" y2="321.918" gradientUnits="userSpaceOnUse">
<stop stop-color="#071A2D"/>
<stop offset="0.46" stop-color="#203D6A"/>
<stop offset="1" stop-color="#4A759F"/>
</linearGradient>
<linearGradient id="paint49_linear_2584_3" x1="313.972" y1="428.503" x2="160.191" y2="486.421" gradientUnits="userSpaceOnUse">
<stop stop-color="#EC1A63"/>
<stop offset="1" stop-color="#FAA827"/>
</linearGradient>
<linearGradient id="paint50_linear_2584_3" x1="166.847" y1="482.333" x2="198.114" y2="423.084" gradientUnits="userSpaceOnUse">
<stop stop-color="#386E9C"/>
<stop offset="1" stop-color="white"/>
</linearGradient>
<linearGradient id="paint51_linear_2584_3" x1="175.567" y1="535.276" x2="137.607" y2="482.866" gradientUnits="userSpaceOnUse">
<stop stop-color="#EC1A63"/>
<stop offset="1" stop-color="#FAA827"/>
</linearGradient>
<linearGradient id="paint52_linear_2584_3" x1="167.839" y1="504.075" x2="132.303" y2="460.425" gradientUnits="userSpaceOnUse">
<stop stop-color="#386E9C"/>
<stop offset="1" stop-color="white"/>
</linearGradient>
<linearGradient id="paint53_linear_2584_3" x1="157.267" y1="482.039" x2="115.068" y2="488.485" gradientUnits="userSpaceOnUse">
<stop stop-color="#386E9C"/>
<stop offset="1" stop-color="white"/>
</linearGradient>
<linearGradient id="paint54_linear_2584_3" x1="177.298" y1="519.014" x2="151.992" y2="471.364" gradientUnits="userSpaceOnUse">
<stop stop-color="#386E9C"/>
<stop offset="1" stop-color="white"/>
</linearGradient>
<linearGradient id="paint55_linear_2584_3" x1="166.169" y1="535.081" x2="133.12" y2="494.573" gradientUnits="userSpaceOnUse">
<stop stop-color="#386E9C"/>
<stop offset="1" stop-color="white"/>
</linearGradient>
<linearGradient id="paint56_linear_2584_3" x1="18.5604" y1="357.085" x2="-9.83681" y2="342.937" gradientUnits="userSpaceOnUse">
<stop stop-color="#071A2D"/>
<stop offset="0.23" stop-color="#071B2E"/>
<stop offset="0.31" stop-color="#0A1E35"/>
<stop offset="0.37" stop-color="#0F2541"/>
<stop offset="0.42" stop-color="#162F52"/>
<stop offset="0.46" stop-color="#203D6A"/>
<stop offset="1" stop-color="#4A759F"/>
</linearGradient>
<linearGradient id="paint57_linear_2584_3" x1="55.0979" y1="362.346" x2="-18.7636" y2="358.459" gradientUnits="userSpaceOnUse">
<stop stop-color="#071A2D"/>
<stop offset="0.23" stop-color="#071B2E"/>
<stop offset="0.31" stop-color="#0A1E35"/>
<stop offset="0.37" stop-color="#0F2541"/>
<stop offset="0.42" stop-color="#162F52"/>
<stop offset="0.46" stop-color="#203D6A"/>
<stop offset="1" stop-color="#4A759F"/>
</linearGradient>
<linearGradient id="paint58_linear_2584_3" x1="65.4785" y1="330.263" x2="2.37162" y2="361.727" gradientUnits="userSpaceOnUse">
<stop stop-color="#071A2D"/>
<stop offset="0.23" stop-color="#071B2E"/>
<stop offset="0.31" stop-color="#0A1E35"/>
<stop offset="0.37" stop-color="#0F2541"/>
<stop offset="0.42" stop-color="#162F52"/>
<stop offset="0.46" stop-color="#203D6A"/>
<stop offset="1" stop-color="#4A759F"/>
</linearGradient>
<linearGradient id="paint59_linear_2584_3" x1="37.048" y1="356.471" x2="-28.3708" y2="348.237" gradientUnits="userSpaceOnUse">
<stop stop-color="#071A2D"/>
<stop offset="0.23" stop-color="#071B2E"/>
<stop offset="0.31" stop-color="#0A1E35"/>
<stop offset="0.37" stop-color="#0F2541"/>
<stop offset="0.42" stop-color="#162F52"/>
<stop offset="0.46" stop-color="#203D6A"/>
<stop offset="1" stop-color="#4A759F"/>
</linearGradient>
<linearGradient id="paint60_linear_2584_3" x1="37.6206" y1="351.94" x2="-27.7983" y2="343.705" gradientUnits="userSpaceOnUse">
<stop stop-color="#071A2D"/>
<stop offset="0.23" stop-color="#071B2E"/>
<stop offset="0.31" stop-color="#0A1E35"/>
<stop offset="0.37" stop-color="#0F2541"/>
<stop offset="0.42" stop-color="#162F52"/>
<stop offset="0.46" stop-color="#203D6A"/>
<stop offset="1" stop-color="#4A759F"/>
</linearGradient>
<linearGradient id="paint61_linear_2584_3" x1="47.1901" y1="426.24" x2="83.4506" y2="304.325" gradientUnits="userSpaceOnUse">
<stop stop-color="#EC1A63"/>
<stop offset="1" stop-color="#FAA827"/>
</linearGradient>
<linearGradient id="paint62_linear_2584_3" x1="56.5832" y1="430.327" x2="70.3736" y2="314.462" gradientUnits="userSpaceOnUse">
<stop stop-color="#386E9C"/>
<stop offset="1" stop-color="white"/>
</linearGradient>
<linearGradient id="paint63_linear_2584_3" x1="51.8715" y1="345.533" x2="108.496" y2="364.968" gradientUnits="userSpaceOnUse">
<stop stop-color="#EC1A63"/>
<stop offset="1" stop-color="#FAA827"/>
</linearGradient>
<linearGradient id="paint64_linear_2584_3" x1="76.4939" y1="398.542" x2="94.4208" y2="300.262" gradientUnits="userSpaceOnUse">
<stop stop-color="#386E9C"/>
<stop offset="1" stop-color="white"/>
</linearGradient>
<linearGradient id="paint65_linear_2584_3" x1="98.3533" y1="390.958" x2="82.2432" y2="359.523" gradientUnits="userSpaceOnUse">
<stop stop-color="#386E9C"/>
<stop offset="1" stop-color="white"/>
</linearGradient>
<linearGradient id="paint66_linear_2584_3" x1="97.9647" y1="301.765" x2="103.026" y2="400.884" gradientUnits="userSpaceOnUse">
<stop stop-color="#071A2D"/>
<stop offset="0.46" stop-color="#203D6A"/>
<stop offset="1" stop-color="#4A759F"/>
</linearGradient>
<linearGradient id="paint67_linear_2584_3" x1="307.546" y1="446.093" x2="434.505" y2="489.123" gradientUnits="userSpaceOnUse">
<stop stop-color="#071A2D"/>
<stop offset="0.46" stop-color="#203D6A"/>
<stop offset="1" stop-color="#4A759F"/>
</linearGradient>
<linearGradient id="paint68_linear_2584_3" x1="356.267" y1="432.91" x2="357.776" y2="481.396" gradientUnits="userSpaceOnUse">
<stop stop-color="#EC1A63"/>
<stop offset="1" stop-color="#FAA827"/>
</linearGradient>
<linearGradient id="paint69_linear_2584_3" x1="444.366" y1="546.55" x2="383.135" y2="447.083" gradientUnits="userSpaceOnUse">
<stop stop-color="#071A2D"/>
<stop offset="0.46" stop-color="#203D6A"/>
<stop offset="1" stop-color="#4A759F"/>
</linearGradient>
<linearGradient id="paint70_linear_2584_3" x1="419.385" y1="540.575" x2="403.867" y2="494.566" gradientUnits="userSpaceOnUse">
<stop stop-color="#EC1A63"/>
<stop offset="1" stop-color="#FAA827"/>
</linearGradient>
<linearGradient id="paint71_linear_2584_3" x1="423.223" y1="539.282" x2="407.704" y2="493.275" gradientUnits="userSpaceOnUse">
<stop stop-color="#EC1A63"/>
<stop offset="1" stop-color="#FAA827"/>
</linearGradient>
<linearGradient id="paint72_linear_2584_3" x1="457.457" y1="601.951" x2="425.705" y2="468.545" gradientUnits="userSpaceOnUse">
<stop stop-color="#386E9C"/>
<stop offset="1" stop-color="white"/>
</linearGradient>
<linearGradient id="paint73_linear_2584_3" x1="388.236" y1="525.418" x2="389.322" y2="462.428" gradientUnits="userSpaceOnUse">
<stop stop-color="#386E9C"/>
<stop offset="1" stop-color="white"/>
</linearGradient>
<linearGradient id="paint74_linear_2584_3" x1="297.081" y1="-255.909" x2="287.18" y2="336.882" gradientUnits="userSpaceOnUse">
<stop stop-color="white"/>
<stop offset="0.55" stop-color="#85CCEA"/>
<stop offset="1" stop-color="#08A4BA"/>
</linearGradient>
<linearGradient id="paint75_linear_2584_3" x1="461.774" y1="268.32" x2="13.1005" y2="334.812" gradientUnits="userSpaceOnUse">
<stop stop-color="#386E9C"/>
<stop offset="1" stop-color="white"/>
</linearGradient>
<linearGradient id="paint76_linear_2584_3" x1="446.414" y1="139.283" x2="157.02" y2="72.2276" gradientUnits="userSpaceOnUse">
<stop stop-color="#386E9C"/>
<stop offset="1" stop-color="white"/>
</linearGradient>
<linearGradient id="paint77_linear_2584_3" x1="37.8962" y1="218.122" x2="600.75" y2="523.858" gradientUnits="userSpaceOnUse">
<stop stop-color="#386E9C"/>
<stop offset="1" stop-color="white"/>
</linearGradient>
<linearGradient id="paint78_linear_2584_3" x1="156.767" y1="155.932" x2="156.416" y2="110.632" gradientUnits="userSpaceOnUse">
<stop stop-color="#396E9B"/>
<stop offset="1" stop-color="white"/>
</linearGradient>
<linearGradient id="paint79_linear_2584_3" x1="341.832" y1="459.087" x2="420.269" y2="77.4121" gradientUnits="userSpaceOnUse">
<stop stop-color="#386E9C"/>
<stop offset="1" stop-color="white"/>
</linearGradient>
<linearGradient id="paint80_linear_2584_3" x1="314.456" y1="444.836" x2="313.863" y2="368.594" gradientUnits="userSpaceOnUse">
<stop stop-color="#396E9B"/>
<stop offset="1" stop-color="white"/>
</linearGradient>
<linearGradient id="paint81_linear_2584_3" x1="447.542" y1="123.74" x2="309.452" y2="434.332" gradientUnits="userSpaceOnUse">
<stop stop-color="#396E9B"/>
<stop offset="1" stop-color="white"/>
</linearGradient>
<linearGradient id="paint82_linear_2584_3" x1="291.117" y1="617.248" x2="289.971" y2="202.599" gradientUnits="userSpaceOnUse">
<stop stop-color="#386E9C"/>
<stop offset="1" stop-color="white"/>
</linearGradient>
<linearGradient id="paint83_linear_2584_3" x1="289.914" y1="470.887" x2="289.914" y2="174.435" gradientUnits="userSpaceOnUse">
<stop stop-color="#071A2D"/>
<stop offset="0.46" stop-color="#203D6A"/>
<stop offset="1" stop-color="#4A759F"/>
</linearGradient>
<linearGradient id="paint84_linear_2584_3" x1="224.395" y1="168.124" x2="224.395" y2="-3.95624" gradientUnits="userSpaceOnUse">
<stop stop-color="#396E9B"/>
<stop offset="1" stop-color="white"/>
</linearGradient>
<linearGradient id="paint85_linear_2584_3" x1="356.721" y1="173.226" x2="347.101" y2="55.4863" gradientUnits="userSpaceOnUse">
<stop stop-color="#396E9B"/>
<stop offset="1" stop-color="white"/>
</linearGradient>
<linearGradient id="paint86_linear_2584_3" x1="289.912" y1="362.848" x2="289.912" y2="250.203" gradientUnits="userSpaceOnUse">
<stop stop-color="#396E9B"/>
<stop offset="1" stop-color="white"/>
</linearGradient>
<linearGradient id="paint87_linear_2584_3" x1="289.912" y1="285.709" x2="289.912" y2="168.068" gradientUnits="userSpaceOnUse">
<stop stop-color="#223C6A"/>
<stop offset="1" stop-color="#40C67C"/>
</linearGradient>
<linearGradient id="paint88_linear_2584_3" x1="288.826" y1="215.91" x2="289.183" y2="112.888" gradientUnits="userSpaceOnUse">
<stop stop-color="#223C6A"/>
<stop offset="1" stop-color="#40C67C"/>
</linearGradient>
<linearGradient id="paint89_linear_2584_3" x1="312.605" y1="215.99" x2="312.963" y2="112.967" gradientUnits="userSpaceOnUse">
<stop stop-color="#223C6A"/>
<stop offset="1" stop-color="#40C67C"/>
</linearGradient>
<linearGradient id="paint90_linear_2584_3" x1="268.238" y1="215.836" x2="268.595" y2="112.813" gradientUnits="userSpaceOnUse">
<stop stop-color="#223C6A"/>
<stop offset="1" stop-color="#40C67C"/>
</linearGradient>
<linearGradient id="paint91_linear_2584_3" x1="293.181" y1="441.221" x2="288.883" y2="236.009" gradientUnits="userSpaceOnUse">
<stop stop-color="#EC1A63"/>
<stop offset="1" stop-color="#FAA827"/>
</linearGradient>
<linearGradient id="paint92_linear_2584_3" x1="277.455" y1="352.566" x2="267.738" y2="155.425" gradientUnits="userSpaceOnUse">
<stop stop-color="#EC1A63"/>
<stop offset="1" stop-color="#FAA827"/>
</linearGradient>
<linearGradient id="paint93_linear_2584_3" x1="305.373" y1="351.19" x2="295.654" y2="154.049" gradientUnits="userSpaceOnUse">
<stop stop-color="#EC1A63"/>
<stop offset="1" stop-color="#FAA827"/>
</linearGradient>
<linearGradient id="paint94_linear_2584_3" x1="281.88" y1="352.351" x2="272.16" y2="155.21" gradientUnits="userSpaceOnUse">
<stop stop-color="#EC1A63"/>
<stop offset="1" stop-color="#FAA827"/>
</linearGradient>
</defs>
</svg>
