<svg width="6995" height="3521" viewBox="0 0 6995 3521" fill="none" xmlns="http://www.w3.org/2000/svg">
<path d="M1756.28 3517.52C1746.72 3512.05 1742.62 3481.31 1729.64 3471.06C1716.66 3460.82 1654.5 3463.55 1642.89 3442.37C1631.27 3421.2 1596.43 3346.06 1577.31 3294.14C1558.18 3242.22 1504.21 3140.44 1488.5 3121.31C1472.79 3102.18 1478.94 2980.59 1474.84 2934.82C1470.74 2888.37 1465.28 2596 1465.28 2565.26C1465.28 2534.52 1330.7 2476.45 1324.56 2473.04C1319.09 2468.94 1226.19 2298.16 1201.59 2263.32C1176.32 2228.48 1165.39 2184.76 1161.29 2169.05C1157.19 2153.34 1187.93 2147.88 1182.47 2128.75C1177 2109.62 1177 2076.83 1187.93 2051.56C1199.55 2026.28 1266.49 1973 1274.69 1953.19C1282.2 1934.06 1276.74 1863.02 1255.56 1853.45C1234.38 1843.89 1180.42 1869.17 1147.63 1847.99C1114.84 1826.81 1069.07 1749.62 1057.46 1734.59C1045.85 1718.88 988.464 1698.39 974.802 1692.24C961.139 1686.09 915.371 1638.27 915.371 1638.27C915.371 1638.27 836.813 1645.79 806.073 1634.18C775.333 1622.56 663.985 1559.03 655.788 1549.47C648.274 1539.91 653.739 1470.91 651.689 1462.71C649.64 1455.2 605.238 1399.19 594.308 1384.16C582.695 1368.45 530.778 1228.41 530.778 1228.41C530.778 1228.41 526.68 1264.61 526.68 1280.32C526.68 1296.04 569.033 1372.54 573.131 1384.16C577.23 1395.77 569.033 1441.54 569.033 1441.54C569.033 1441.54 495.94 1335.66 491.841 1324.04C487.742 1312.43 474.763 1208.6 470.665 1189.47C466.566 1170.34 430.361 1170.34 428.312 1147.12C426.262 1123.89 399.621 1024.16 411.234 995.466C422.847 966.775 538.293 853.378 540.342 808.976C542.391 764.574 524.63 739.982 524.63 739.982C524.63 739.982 541.708 697.629 543.758 683.966C545.807 670.304 541.708 568.52 536.243 545.294C530.778 522.069 409.868 461.272 409.868 461.272C409.868 461.272 365.465 494.061 353.852 496.11C342.239 498.16 265.048 505.674 244.554 513.188C224.061 520.702 0 590.38 0 590.38C0 590.38 80.6073 532.998 80.6073 526.85C80.6073 520.702 17.0778 500.209 32.7894 479.033C48.501 457.856 53.9659 444.194 92.2202 427.116C130.474 410.038 170.778 401.841 170.778 401.841L187.856 357.439C274.611 315.086 454.953 228.33 468.615 224.915C482.277 220.816 685.845 261.12 766.452 274.782C847.059 288.444 1056.78 246.091 1056.78 246.091L1187.25 290.494L1510.36 288.444L1526.07 217.401C1526.07 217.401 1593.7 201.689 1603.27 209.886C1612.83 217.401 1622.39 269.317 1631.96 261.803C1641.52 254.289 1683.87 179.146 1699.58 169.583C1715.3 160.019 1909.3 169.583 1909.3 169.583C1934.57 196.224 2059.58 319.867 2045.92 329.431C2032.26 338.995 1982.39 348.558 1974.88 354.706C1967.36 360.171 1984.44 416.186 1942.09 431.898C1899.74 447.609 1849.87 433.947 1832.79 416.186C1815.71 399.108 1759.7 381.347 1773.36 375.883C1787.02 370.418 1790.44 377.932 1813.66 362.22C1836.89 346.509 1890.86 308.254 1869.68 291.177C1848.5 274.099 1821.86 260.437 1802.05 260.437C1782.92 260.437 1702.32 331.48 1682.51 350.607C1663.38 369.735 1657.23 397.059 1646.3 398.425C1635.37 399.792 1569.11 390.911 1556.13 398.425C1542.47 405.94 1344.37 490.646 1352.56 500.209C1360.76 509.773 1456.4 590.38 1465.96 601.993C1475.52 613.606 1477.57 684.649 1498.75 680.551C1519.93 676.452 1541.1 634.099 1556.13 612.923C1571.16 591.746 1625.12 578.084 1631.27 572.619C1636.74 567.154 1621.71 522.752 1631.27 509.09C1640.84 495.427 1702.32 420.285 1711.88 420.285C1721.44 420.285 1798.64 433.947 1806.15 443.511C1813.66 453.074 1827.33 509.09 1848.5 509.09C1869.68 509.09 1940.72 483.814 1940.72 483.814L1950.29 568.52L1990.59 595.162C1990.59 595.162 2006.3 673.72 2011.77 718.122C2017.23 762.524 2027.48 810.342 2011.77 812.391C1996.05 814.441 1973.51 819.906 1965.31 812.391C1957.8 804.877 1875.14 808.293 1876.51 795.314C1877.88 782.334 1909.3 762.524 1899.74 748.862C1890.17 735.2 1863.53 735.2 1836.21 737.249C1809.57 739.298 1761.06 779.602 1768.58 800.779C1776.09 821.955 1849.19 858.16 1855.33 864.308C1860.8 869.773 1768.58 899.147 1746.04 906.661C1722.81 914.175 1665.43 890.949 1653.82 890.949C1642.2 890.949 1578.67 940.817 1536.32 979.754C1493.97 1018.01 1312.94 1185.37 1303.38 1201.08C1293.82 1216.79 1287.67 1309.01 1280.15 1335.66C1272.64 1362.3 1256.93 1401.23 1241.9 1393.04C1226.19 1385.52 1220.72 1362.3 1209.11 1329.51C1197.5 1296.72 1164.71 1252.32 1145.58 1250.95C1126.45 1248.9 1093.66 1295.35 1074.54 1289.2C1055.41 1283.06 1020.57 1270.08 984.365 1275.54C948.16 1281.01 903.758 1302.18 892.145 1327.46C880.532 1352.73 832.714 1496.87 836.13 1506.43C840.228 1516 890.096 1563.82 909.223 1563.82C928.35 1563.82 972.752 1500.29 986.414 1500.29C1000.08 1500.29 1075.22 1490.72 1075.22 1500.29C1075.22 1509.85 1015.79 1621.2 1049.94 1625.3C1084.78 1629.39 1144.21 1629.39 1144.21 1646.47C1144.21 1663.55 1128.5 1781.04 1128.5 1781.04C1128.5 1781.04 1207.06 1815.88 1224.82 1813.83C1241.9 1811.78 1246 1804.27 1286.3 1785.14C1326.6 1766.02 1428.39 1712.05 1437.95 1714.1C1447.52 1716.15 1530.17 1770.12 1530.17 1770.12L1566.38 1756.45C1566.38 1756.45 1639.47 1756.45 1646.98 1756.45C1654.5 1756.45 1664.06 1819.98 1664.06 1819.98C1664.06 1819.98 1706.42 1852.77 1716.66 1856.19C1726.91 1860.29 1765.85 1863.7 1771.31 1865.75C1776.78 1867.8 1846.45 1892.39 1860.12 1904.01C1873.78 1915.62 1896.32 1953.87 1904.52 1981.2C1912.03 2007.84 1923.64 2031.06 1995.37 2058.39C2067.1 2085.03 2077.35 2081.61 2116.28 2096.64C2155.22 2111.67 2269.98 2196.38 2274.08 2207.99C2278.18 2219.6 2196.89 2346.66 2170.25 2361.69C2143.61 2376.72 2170.25 2634.94 2170.25 2634.94C2170.25 2634.94 2012.45 2684.8 1985.81 2696.42C1959.17 2708.03 1985.81 2757.9 1985.81 2773.61C1985.81 2789.32 1874.46 2950.53 1858.75 3008.6C1843.04 3065.98 1801.37 3077.59 1785.66 3081.69C1769.94 3085.79 1705.05 3227.88 1719.39 3262.72C1733.74 3297.55 1731.69 3347.42 1720.08 3385.68C1708.46 3423.93 1833.47 3516.83 1833.47 3516.83C1833.47 3516.83 1765.85 3523.66 1756.28 3517.52ZM1205.69 1482.52C1226.87 1490.04 1307.48 1539.91 1347.78 1551.52C1388.08 1563.13 1399.7 1537.86 1390.13 1535.81C1380.57 1533.76 1270.59 1460.67 1228.24 1445.64C1185.88 1429.93 1126.45 1464.76 1126.45 1464.76C1126.45 1464.76 1184.52 1475.01 1205.69 1482.52ZM1466.64 1578.84C1487.82 1582.94 1527.44 1571.33 1523.34 1559.72C1519.24 1548.1 1476.21 1536.49 1470.74 1535.81C1465.28 1535.12 1428.39 1547.42 1428.39 1547.42C1428.39 1547.42 1445.47 1575.43 1466.64 1578.84ZM2229 178.463C2231.73 188.71 2269.98 242.676 2265.2 250.873C2260.42 259.07 2213.97 276.148 2206.45 299.374C2198.94 322.6 2185.96 404.573 2209.19 429.848C2232.41 455.124 2286.38 509.09 2304.14 498.843C2321.9 488.596 2383.38 370.418 2414.12 358.122C2444.86 345.143 2516.59 347.875 2541.86 332.163C2567.14 316.452 2709.22 280.93 2719.47 275.465C2729.72 270 2739.96 211.253 2786.42 190.759C2832.87 170.266 2865.66 103.321 2871.12 93.0741C2876.59 82.8274 3004.33 31.594 3004.33 31.594C3004.33 31.594 2935.33 37.0588 2875.9 15.8824C2816.47 -5.29412 2668.24 -5.29412 2566.45 15.8824C2464.67 37.0588 2408.65 8.36813 2314.39 29.5446C2220.12 50.7211 2137.46 67.7989 2106.72 77.3625C2075.98 86.9261 2078.03 115.617 2083.49 115.617C2088.96 115.617 2168.2 125.18 2218.07 125.18C2217.38 126.547 2226.95 168.216 2229 178.463ZM3442.2 1055.58C3442.2 1055.58 3472.94 992.05 3459.96 974.289C3446.99 956.528 3373.89 861.576 3373.89 861.576C3373.89 861.576 3487.97 915.541 3492.07 918.957C3496.17 923.056 3513.93 974.289 3516.66 981.803C3519.4 989.318 3595.22 1081.54 3595.22 1081.54L3628.69 970.19C3638.94 987.951 3653.29 1090.42 3690.17 1097.25C3727.06 1103.4 3881.45 1074.02 3881.45 1074.02C3881.45 1074.02 3845.24 1196.98 3840.46 1209.96C3834.99 1222.94 3873.93 1304.92 3904.67 1356.15C3935.41 1407.38 3945.66 1453.83 3945.66 1453.83C3945.66 1453.83 3983.91 1474.33 3996.89 1497.55C4009.87 1520.78 4115.07 1738.69 4132.83 1731.18C4150.59 1723.66 4373.97 1610.95 4381.48 1595.24C4389 1579.53 4455.94 1475.01 4448.43 1464.76C4440.91 1454.52 4366.46 1385.52 4353.48 1382.79C4340.5 1380.06 4315.22 1408.75 4315.22 1408.75C4315.22 1408.75 4268.77 1398.5 4230.52 1362.3C4192.26 1326.09 4161.52 1264.61 4161.52 1264.61C4161.52 1264.61 4251.01 1336.34 4266.72 1345.22C4282.43 1354.1 4389.68 1345.22 4389.68 1345.22L4417.69 1377.33L4566.61 1371.86C4566.61 1371.86 4638.33 1479.79 4654.05 1502.34C4669.76 1525.56 4756.51 1502.34 4756.51 1502.34L4743.53 1597.29L4879.47 1848.67C4879.47 1848.67 4925.92 1797.44 4930.71 1787.19C4936.17 1776.95 4948.47 1671.75 4948.47 1671.75C4948.47 1671.75 4989.45 1628.03 4999.7 1610.27C5009.95 1592.51 5107.63 1471.6 5130.18 1466.81C5152.72 1462.03 5184.14 1482.52 5229.91 1533.76C5276.36 1584.99 5263.38 1641.69 5263.38 1641.69C5263.38 1641.69 5309.83 1618.46 5324.86 1618.46C5340.57 1618.46 5342.62 1644.42 5363.12 1669.7C5383.61 1695.66 5361.75 1800.86 5367.22 1818.62C5372.68 1835.69 5405.47 1916.98 5423.91 1936.79C5442.36 1957.29 5511.35 2026.28 5511.35 2022.18C5511.35 2018.08 5516.13 1989.39 5514.08 1979.83C5512.04 1970.27 5505.2 1966.17 5505.2 1951.14C5505.2 1935.43 5500.42 1899.22 5477.2 1877.36C5453.97 1855.5 5403.42 1819.98 5395.91 1783.09C5388.39 1746.21 5430.74 1721.61 5448.51 1740.74C5466.27 1759.87 5537.31 1834.33 5537.31 1834.33C5588.54 1787.88 5629.53 1721.61 5626.8 1703.85C5624.07 1686.09 5537.31 1583.63 5524.33 1560.4C5511.35 1537.17 5537.31 1501.65 5555.07 1483.21C5572.83 1465.45 5613.82 1519.41 5629.53 1511.22C5645.24 1503.7 5772.98 1442.22 5780.5 1431.97C5788.01 1421.73 5831.73 1262.56 5824.22 1244.8C5816.7 1227.04 5757.27 1152.58 5744.98 1136.87C5732 1121.16 5788.7 1075.39 5788.7 1075.39C5788.7 1075.39 5729.95 1067.88 5703.99 1054.9C5678.03 1041.92 5675.98 996.149 5688.28 989.318C5701.26 983.17 5733.36 1027.57 5744.98 1027.57C5756.59 1027.57 5777.77 1009.13 5777.77 1009.13L5904.82 1164.88C5904.82 1164.88 5945.13 1117.06 5949.23 1105.45C5953.33 1093.83 5862.47 992.05 5862.47 992.05C5862.47 992.05 5968.35 926.471 5970.4 903.245C5972.45 880.02 5987.48 772.771 5987.48 772.771C5987.48 772.771 6048.96 828.786 6056.48 832.202C6063.99 836.3 6100.88 832.202 6089.27 815.124C6077.65 798.046 5983.38 670.987 5964.26 653.226C5945.13 636.148 5838.56 626.585 5838.56 626.585L5768.2 589.697C5768.2 589.697 5814.65 504.991 5826.95 500.892C5839.93 496.794 6018.22 518.653 6028.47 509.773C6038.71 500.892 6020.95 429.165 6044.18 444.194C6067.41 459.905 6114.54 467.42 6118.64 473.568C6122.74 479.716 6109.76 563.055 6120.01 573.302C6130.25 583.549 6276.44 725.636 6276.44 725.636C6276.44 725.636 6283.95 625.902 6276.44 588.331C6268.92 550.759 6207.44 494.744 6207.44 494.744C6207.44 494.744 6257.31 494.744 6268.92 487.23C6280.54 479.716 6376.86 421.651 6376.86 421.651L6346.12 383.397L6473.17 390.911V333.53C6473.17 333.53 6392.57 302.79 6353.63 298.691C6315.38 294.592 6084.48 248.824 6084.48 248.824C6084.48 248.824 5811.24 244.725 5777.08 244.725C5742.24 244.725 5507.94 202.372 5473.1 198.273C5438.26 194.175 5338.52 213.985 5338.52 213.985L5281.14 165.484H5007.9C5007.9 165.484 4950.52 140.892 4888.35 110.152C4826.87 79.4118 4792.03 86.9261 4718.94 110.152C4645.85 133.378 4584.37 140.892 4488.05 187.344C4391.73 233.795 4330.25 160.702 4307.02 165.484C4283.8 170.266 4233.93 240.626 4210.71 251.556C4187.48 262.486 4022.17 313.719 3979.81 298.691C3937.46 282.979 3841.14 300.74 3841.14 300.74L3656.7 239.26C3656.7 239.26 3460.65 262.486 3449.04 272.049C3437.42 281.613 3227.71 462.638 3227.71 462.638L3246.83 528.217L3335.64 502.258L3360.91 612.923L3462.7 502.258L3427.86 457.173L3548.77 362.903L3520.08 431.898L3569.95 501.575L3477.73 623.169C3477.73 623.169 3356.82 638.881 3341.1 628.634C3325.39 619.071 3308.31 545.978 3287.14 559.64C3265.96 573.302 3273.48 604.042 3250.93 625.219C3227.71 646.395 3102.7 746.13 3064.44 752.278C3026.19 758.426 2985.88 777.553 2991.35 785.067C2996.81 792.581 3066.49 810.342 3080.15 823.321C3093.82 836.984 3087.67 890.949 3045.32 896.414C3002.96 901.879 2916.21 882.752 2899.13 932.619C2882.05 982.487 2880 1046.02 2899.13 1061.73C2918.26 1077.44 2955.14 1087 2955.14 1087L3051.46 1067.88C3051.46 1067.88 3084.25 1010.49 3095.87 994.782C3107.48 979.071 3163.49 923.739 3184.67 912.126C3205.85 900.513 3286.45 881.386 3286.45 881.386C3286.45 881.386 3305.58 906.661 3315.15 916.225C3324.71 925.788 3424.44 987.268 3421.03 1002.98C3416.93 1018.69 3373.21 1054.9 3373.21 1054.9L3442.2 1055.58ZM3332.91 1177.17C3332.91 1177.17 3328.81 1082.9 3323.34 1075.39C3317.88 1067.88 3175.11 1075.39 3175.11 1075.39C3119.09 1077.44 3119.09 1104.08 3057.61 1113.64C2996.13 1123.21 2967.44 1110.23 2948.31 1124.57C2929.19 1138.92 2831.5 1281.69 2813.74 1294.67C2795.98 1307.65 2688.05 1448.37 2685.32 1471.59C2682.58 1494.82 2695.56 1617.78 2685.32 1630.76C2675.07 1643.74 2674.39 1692.24 2684.63 1707.95C2695.56 1723.66 2787.78 1858.92 2815.79 1895.12C2843.8 1931.33 2880 1949.09 2920.99 1938.84C2961.98 1928.6 3033.7 1947.04 3046.68 1941.58C3059.66 1936.11 3141.63 1879.41 3159.4 1887.61C3177.16 1895.12 3190.14 1931.33 3220.88 1931.33C3251.62 1931.33 3323.34 1941.58 3313.1 1979.83C3302.85 2018.08 3279.62 2092.54 3297.38 2110.31C3315.15 2128.07 3399.85 2315.24 3407.37 2343.93C3414.88 2371.94 3348.62 2451.86 3348.62 2474.4C3348.62 2496.95 3398.48 2613.08 3408.05 2641.08C3417.61 2669.09 3427.86 2751.06 3433.32 2774.29C3438.79 2797.52 3487.29 2871.98 3487.29 2897.25C3487.29 2923.21 3471.58 2981.96 3487.29 2986.74C3503 2992.2 3700.42 2948.48 3720.91 2938.24C3741.41 2927.99 3846.61 2758.58 3859.59 2745.6C3872.56 2732.62 3900.57 2701.88 3897.84 2684.12C3895.11 2666.36 3877.35 2584.39 3887.59 2571.41C3897.84 2558.43 4000.31 2494.21 4005.77 2473.72C4011.24 2453.23 4016.02 2348.03 4005.77 2320.02C3995.53 2292.01 3990.06 2179.3 3998.26 2163.59C4005.77 2147.88 4164.94 1989.39 4188.16 1968.9C4211.39 1948.41 4277.65 1774.21 4280.38 1748.26C4280.38 1748.26 4249.64 1742.79 4226.42 1750.99C4203.19 1758.5 4110.97 1776.95 4110.97 1776.95C4110.97 1776.95 3980.5 1566.55 3949.07 1515.31C3917.65 1464.08 3839.09 1246.17 3826.11 1233.19C3813.13 1220.21 3796.06 1220.21 3755.75 1220.21C3715.45 1220.21 3605.47 1168.98 3584.97 1168.98C3564.48 1168.98 3536.47 1233.19 3526.23 1240.7C3515.98 1248.22 3431.27 1212.7 3418.29 1196.98C3406 1181.27 3373.21 1162.15 3332.91 1177.17ZM4154.69 2736.72C4170.4 2736.72 4188.85 2659.53 4196.36 2625.37C4203.87 2590.53 4255.79 2446.4 4248.28 2425.22C4240.76 2404.04 4225.05 2371.25 4215.49 2369.2C4205.92 2367.16 4194.31 2415.66 4173.13 2440.25C4151.96 2464.84 4121.22 2486.7 4109.6 2492.17C4097.99 2497.63 4095.94 2522.91 4097.99 2549.55C4100.04 2576.19 4061.79 2636.3 4059.74 2649.28C4057.69 2662.26 4076.82 2736.04 4076.82 2736.04C4076.82 2736.04 4138.98 2736.72 4154.69 2736.72ZM2701.03 353.34C2701.03 353.34 2737.92 386.812 2750.89 398.425C2763.87 410.038 2775.49 397.059 2808.28 398.425C2841.07 399.792 2858.14 367.685 2869.76 363.587C2881.37 359.488 2906.64 345.826 2906.64 345.826V312.353C2906.64 312.353 2805.54 328.065 2789.83 331.48C2774.12 335.579 2738.6 328.748 2729.72 331.48C2721.52 334.213 2701.03 353.34 2701.03 353.34ZM5315.98 1953.87C5323.5 1967.53 5404.79 2048.14 5408.2 2057.71C5412.3 2067.27 5535.26 2223.02 5535.26 2223.02C5535.26 2223.02 5550.97 2215.5 5540.73 2203.89C5531.16 2192.28 5554.39 2125.33 5540.73 2105.52C5527.06 2086.4 5492.91 2036.53 5477.2 2020.82C5461.48 2005.79 5436.89 2013.3 5415.72 1972.32C5394.54 1931.33 5326.91 1908.79 5302.32 1906.74C5303 1908.1 5308.47 1940.21 5315.98 1953.87ZM5572.15 2240.78C5572.15 2240.78 5611.77 2259.91 5636.36 2264.01C5660.95 2268.1 5701.94 2290.65 5718.33 2293.38C5734.73 2296.11 5807.82 2299.53 5807.82 2299.53C5807.82 2299.53 5798.94 2279.03 5784.6 2258.54C5770.25 2238.05 5716.97 2244.2 5712.87 2240.78C5708.77 2236.68 5679.4 2238.05 5667.78 2223.7C5656.17 2208.67 5629.53 2223.7 5629.53 2223.7C5629.53 2223.7 5619.28 2237.36 5598.79 2230.53C5578.3 2223.7 5572.15 2240.78 5572.15 2240.78ZM5751.12 1908.1C5751.12 1908.1 5702.62 1979.15 5690.33 1985.3C5678.03 1991.44 5622.7 2006.47 5622.7 2006.47C5622.7 2006.47 5639.78 2023.55 5645.92 2052.92C5652.07 2082.3 5665.05 2128.07 5674.62 2137.63C5684.18 2147.19 5728.58 2149.24 5740.19 2153.34C5751.81 2157.44 5776.4 2176.57 5776.4 2176.57L5808.51 2162.9C5808.51 2162.9 5813.29 2101.42 5822.85 2091.86C5832.42 2082.3 5859.06 2066.59 5859.06 2066.59V2022.18C5859.06 2022.18 5830.37 1994.86 5835.83 1973.68C5841.29 1952.51 5870.67 1948.41 5870.67 1948.41C5870.67 1948.41 5857.01 1908.1 5851.54 1908.1C5846.08 1908.1 5816.7 1871.9 5816.7 1871.9L5751.12 1908.1ZM5906.87 2194.33C5926 2188.86 5949.23 2205.94 5962.89 2216.87C5976.55 2227.8 5960.84 2161.54 5960.84 2161.54L5934.2 2100.06C5934.2 2100.06 5980.65 2109.62 5986.11 2104.16C5991.58 2098.69 6024.37 2087.76 6024.37 2087.76L5937.61 2065.9C5937.61 2065.9 5966.3 2050.19 5972.45 2050.19C5977.92 2050.19 6028.47 2033.11 6029.83 2023.55C6031.88 2013.99 6029.83 2000.32 6029.83 2000.32C6029.83 2000.32 5983.38 2013.99 5972.45 2009.89C5960.84 2005.79 5906.87 2009.89 5906.87 2009.89C5906.87 2009.89 5885.7 2048.14 5885.7 2065.9C5885.7 2082.98 5868.62 2102.11 5869.99 2112.35C5872.04 2121.92 5869.99 2175.88 5869.99 2175.88C5869.99 2175.88 5887.75 2200.48 5906.87 2194.33ZM6154.84 2094.59L6178.07 2141.05C6178.07 2141.05 6212.91 2166.32 6222.47 2164.27C6232.04 2162.22 6283.95 2179.98 6281.9 2187.5C6279.85 2195.01 6286 2281.77 6286 2281.77L6328.35 2279.72L6387.79 2315.92L6428.09 2285.18C6428.09 2285.18 6460.88 2256.49 6472.49 2258.54C6484.1 2260.59 6491.62 2298.84 6507.33 2310.46C6523.04 2322.07 6582.47 2352.81 6582.47 2352.81V2326.17C6582.47 2326.17 6549.68 2302.94 6536.02 2279.72C6522.36 2256.49 6524.41 2202.53 6507.33 2195.01C6490.25 2187.5 6460.88 2143.09 6413.06 2131.48C6365.24 2119.87 6316.74 2095.28 6293.52 2096.64C6270.29 2098.69 6262.78 2117.82 6236.13 2109.62C6209.49 2101.42 6195.83 2065.9 6186.27 2065.9C6176.7 2065.9 6136.4 2082.98 6136.4 2082.98L6154.84 2094.59ZM5632.26 2925.26V2976.49C5632.26 2976.49 5688.96 2989.47 5724.48 2973.76C5760.69 2958.05 5986.11 2884.27 6009.34 2889.05C6032.57 2894.52 6066.04 2947.8 6070.82 2960.78C6076.29 2973.76 6124.79 2976.49 6135.72 2986.74C6146.65 2997.67 6160.99 3083.74 6186.27 3078.96C6212.23 3073.49 6358.41 3045.49 6358.41 3045.49C6358.41 3045.49 6524.41 2858.31 6550.37 2811.86C6576.32 2765.41 6581.79 2709.39 6581.79 2709.39L6460.88 2522.22C6460.88 2522.22 6440.38 2396.53 6434.92 2386.28C6429.46 2376.04 6404.18 2337.78 6404.18 2337.78C6404.18 2337.78 6355.68 2435.47 6345.43 2450.5C6335.19 2465.52 6301.71 2496.95 6301.71 2496.95C6301.71 2496.95 6247.75 2450.5 6245.01 2438.2C6242.28 2425.22 6283.27 2381.5 6283.27 2381.5C6283.27 2381.5 6239.55 2373.99 6221.79 2369.2C6204.03 2364.42 6150.06 2369.2 6150.06 2369.2L6075.6 2422.49C6075.6 2422.49 5998.41 2417.02 5990.9 2422.49C5983.38 2427.95 5880.92 2565.94 5869.99 2571.41C5859.06 2576.87 5711.5 2612.39 5706.72 2622.64C5701.26 2632.89 5658.22 2714.86 5658.22 2714.86C5658.22 2714.86 5673.93 2766.09 5671.2 2786.59C5668.47 2807.08 5658.22 2899.3 5658.22 2899.3L5632.26 2925.26ZM6581.79 3294.82C6582.47 3300.29 6663.08 3297.55 6673.33 3294.82C6683.57 3292.09 6788.77 3215.58 6837.27 3166.4C6885.77 3117.9 6983.46 3063.93 6993.71 3050.95C7003.95 3037.97 6949.99 3014.75 6949.99 3014.75L6911.73 2971.03C6911.73 2971.03 6911.73 3040.02 6911.73 3050.27C6911.73 3060.51 6904.22 3093.99 6855.03 3117.21C6806.53 3140.44 6806.53 3163.66 6729.34 3165.71C6652.15 3168.45 6581.11 3263.4 6581.11 3263.4C6581.11 3263.4 6581.11 3289.36 6581.79 3294.82ZM5891.16 1552.2L5860.42 1582.94V1653.99C5860.42 1653.99 5881.6 1684.73 5900.73 1701.8C5919.85 1718.88 5949.91 1738.01 5949.91 1738.01L5964.26 1714.78C5964.26 1714.78 5960.16 1695.66 5929.42 1664.92C5898.68 1634.18 5904.14 1628.71 5912.34 1601.39C5920.54 1574.06 5891.16 1552.2 5891.16 1552.2ZM6075.6 855.428C6075.6 855.428 6066.04 901.879 6075.6 923.056C6085.17 944.232 6115.91 970.874 6120.01 984.536C6124.1 998.198 6095.41 1055.58 6095.41 1055.58C6095.41 1055.58 5998.41 1113.64 5996.36 1127.31C5994.31 1140.97 5979.28 1186.74 5979.28 1186.74L5998.41 1238.65C5998.41 1238.65 6081.75 1173.07 6120.01 1163.51C6158.26 1153.95 6200.61 1086.32 6200.61 1086.32C6200.61 1086.32 6169.87 1022.79 6165.77 1003.66C6161.67 984.536 6132.98 959.261 6150.06 944.232C6167.14 928.521 6184.9 944.232 6180.8 917.591C6176.7 890.949 6126.84 877.287 6117.27 869.773C6108.39 861.576 6075.6 855.428 6075.6 855.428ZM3026.19 620.437L3040.53 634.099C3040.53 634.099 3026.87 657.325 3017.31 668.938C3007.74 680.551 3021.41 742.031 3021.41 742.031L3065.81 728.369L3138.22 683.283V656.642C3138.22 656.642 3102.01 591.063 3090.4 576.035C3078.79 561.006 3035.75 510.456 3031.65 512.505C3027.55 514.554 2988.62 540.513 2988.62 540.513C2988.62 540.513 2985.88 589.697 2972.91 597.894C2960.61 606.775 2894.35 642.296 2897.76 651.177C2901.86 660.057 2931.24 682.6 2940.8 679.868C2950.36 677.135 2980.42 667.572 2982.47 663.473C2984.52 659.374 2998.86 623.169 2998.86 623.169C3007.06 628.634 3026.19 620.437 3026.19 620.437Z" fill="url(#paint0_linear_753_87)"/>
<path d="M5858.5 1373L5876 1365.5C5879 1373 5886 1378.6 5886 1381C5886 1383.4 5881.67 1408.33 5879.5 1414L5863.5 1432.5L5850 1439.5V1427L5844 1420L5851.5 1400L5858.5 1373Z" fill="url(#paint1_linear_753_87)"/>
<defs>
<linearGradient id="paint0_linear_753_87" x1="3490.07" y1="2982.05" x2="3490.07" y2="-6243.6" gradientUnits="userSpaceOnUse">
<stop stop-color="#2E4F82"/>
<stop offset="1" stop-color="#19315C"/>
</linearGradient>
<linearGradient id="paint1_linear_753_87" x1="5864.96" y1="1428.19" x2="5864.96" y2="1234.25" gradientUnits="userSpaceOnUse">
<stop stop-color="#2E4F82"/>
<stop offset="1" stop-color="#19315C"/>
</linearGradient>
</defs>
</svg>
